*
G04 Mass Parameters ***
*
G04 Image ***
*
%INK:\SENIOR_DESIGN\SCHEMATICS\SUBMIT_FILES\DETECTOR.DRD*%
%ICAS*%
%MOIN*%
%IPPOS*%
%ASAXBY*%
G74*%FSLAN2X34Y34*%
*
G04 Aperture Definitions ***
*
%ADD10R,0.0500X0.0500*%
%ADD11C,0.0450*%
%ADD12C,0.0520*%
%ADD13R,0.0520X0.0520*%
%ADD14C,0.0620*%
%ADD15R,0.0620X0.0620*%
%ADD16R,0.0400X0.0340*%
%ADD17R,0.0500X0.0340*%
%ADD18R,0.0340X0.0400*%
%ADD19R,0.0340X0.0500*%
%ADD20C,0.0580*%
%ADD21R,0.0580X0.0580*%
%ADD22C,0.0550*%
%ADD23O,0.0180X0.1000*%
%ADD24R,0.0180X0.1000*%
%ADD25O,0.1000X0.0180*%
%ADD26R,0.1000X0.0180*%
%ADD27O,0.1000X0.0250*%
%ADD28R,0.1000X0.0250*%
%ADD29C,0.0500*%
%ADD30C,0.0500*%
%ADD31C,0.0120*%
%ADD32C,0.0500*%
%ADD33R,0.0500X0.0500*%
%ADD34C,0.0450*%
%ADD35C,0.0520*%
%ADD36R,0.0520X0.0520*%
%ADD37C,0.0620*%
%ADD38R,0.0620X0.0620*%
%ADD39C,0.0580*%
%ADD40R,0.0580X0.0580*%
%ADD41C,0.0550*%
%ADD42O,0.0940X0.0250*%
%ADD43R,0.0940X0.0250*%
%ADD44C,0.0500*%
%ADD45C,0.0650*%
%ADD46C,0.0720*%
%ADD47R,0.0720X0.0720*%
%ADD48C,0.0820*%
%ADD49R,0.0820X0.0820*%
%ADD50C,0.0780*%
%ADD51R,0.0780X0.0780*%
%ADD52C,0.0750*%
%ADD53C,0.0500*%
%ADD54C,0.0750*%
%ADD55C,0.0650*%
%ADD56C,0.0720*%
%ADD57R,0.0720X0.0720*%
%ADD58C,0.0820*%
%ADD59R,0.0820X0.0820*%
%ADD60C,0.0780*%
%ADD61R,0.0780X0.0780*%
%ADD62C,0.0750*%
%ADD63R,0.0500X0.0500*%
%ADD64C,0.0450*%
%ADD65C,0.0520*%
%ADD66R,0.0520X0.0520*%
%ADD67C,0.0620*%
%ADD68R,0.0620X0.0620*%
%ADD69R,0.0400X0.0340*%
%ADD70R,0.0500X0.0340*%
%ADD71R,0.0340X0.0400*%
%ADD72R,0.0340X0.0500*%
%ADD73C,0.0580*%
%ADD74R,0.0580X0.0580*%
%ADD75C,0.0600*%
%ADD76O,0.0180X0.1000*%
%ADD77R,0.0180X0.1000*%
%ADD78O,0.1000X0.0180*%
%ADD79R,0.1000X0.0180*%
%ADD80O,0.1000X0.0250*%
%ADD81R,0.1000X0.0250*%
%ADD82C,0.0550*%
%ADD83C,0.0550*%
%ADD84C,0.0600*%
%ADD85C,0.0080*%
%ADD86C,0.0100*%
%ADD87C,0.0060*%
%ADD88C,0.0010*%
%ADD89O,0.0250X0.0940*%
%ADD90R,0.0250X0.0940*%
%ADD91O,0.0250X0.1000*%
%ADD92R,0.0250X0.1000*%
%ADD93O,0.0860X0.0250*%
%ADD94R,0.0860X0.0250*%
%ADD95C,0.0610*%
%ADD96C,0.0610*%
%ADD97O,0.0250X0.0940*%
%ADD98R,0.0250X0.0940*%
%ADD99O,0.0250X0.1000*%
%ADD100R,0.0250X0.1000*%
%ADD101R,0.0340X0.0400*%
%ADD102R,0.0340X0.0500*%
%ADD103R,0.0400X0.0340*%
%ADD104R,0.0500X0.0340*%
%ADD105O,0.1000X0.0180*%
%ADD106R,0.1000X0.0180*%
%ADD107O,0.0180X0.1000*%
%ADD108R,0.0180X0.1000*%
%ADD109O,0.0250X0.0940*%
%ADD110R,0.0250X0.0940*%
%ADD111O,0.0250X0.1000*%
%ADD112R,0.0250X0.1000*%
%ADD113O,0.1000X0.0250*%
%ADD114R,0.1000X0.0250*%
*
G04 Plot Data ***
*
G54D86*
G01X0024708Y-0012753D02*
X0024375D01*
X0024542D02*
Y-0011753D01*
X0024375Y-0011920D01*
X0023342Y-0012253D02*
X0023842D01*
X0023925Y-0012420D01*
Y-0012587D01*
X0023842Y-0012753D01*
X0023342D01*
X0023258Y-0012587D01*
Y-0012420D01*
X0023592Y-0011753D01*
X0022975Y-0012753D02*
X0022308D01*
X0022975Y-0012087D01*
Y-0011920D01*
X0022892Y-0011753D01*
X0022392D01*
X0022308Y-0011920D01*
X0012312Y-0012753D02*
X0011729D01*
Y-0011753D01*
X0011446Y-0012420D02*
X0010779D01*
X0011446Y-0012753D02*
Y-0012253D01*
X0011196Y-0011753D01*
X0011029D01*
X0010779Y-0012253D01*
Y-0012753D01*
X0010162D02*
Y-0011753D01*
X0010496D02*
X0009829D01*
X0008962Y-0012753D02*
X0008879Y-0012587D01*
Y-0011920D01*
X0008962Y-0011753D01*
X0009462D01*
X0009546Y-0011920D01*
Y-0012587D01*
X0009462Y-0012753D01*
X0008962D01*
X0008262D02*
Y-0011753D01*
X0008596D02*
X0007929D01*
X0024708Y-0010670D02*
X0024264D01*
X0024486Y-0010226D01*
X0024597D01*
Y-0010892D01*
X0024008D02*
X0023786D01*
X0023897D02*
Y-0010226D01*
X0023786Y-0010337D01*
X0011092Y-0010892D02*
X0010647D01*
X0011092Y-0010448D01*
Y-0010337D01*
X0011036Y-0010226D01*
X0010703D01*
X0010647Y-0010337D01*
X0010392Y-0010670D02*
X0009947D01*
X0010169Y-0010226D01*
X0010280D01*
Y-0010892D01*
X0009414D02*
X0009303Y-0010781D01*
X0009247Y-0010670D01*
Y-0010448D01*
X0009303Y-0010337D01*
X0009414Y-0010226D01*
X0009525D01*
X0009636Y-0010337D01*
X0009692Y-0010448D01*
Y-0010670D01*
X0009636Y-0010781D01*
X0009525Y-0010892D01*
X0009414D01*
X0008881D02*
X0008992D01*
Y-0010781D01*
X0008881D01*
Y-0010892D01*
X0008236D02*
X0008125Y-0010781D01*
X0008069Y-0010670D01*
Y-0010448D01*
X0008125Y-0010337D01*
X0008236Y-0010226D01*
X0008347D01*
X0008458Y-0010337D01*
X0008514Y-0010448D01*
Y-0010670D01*
X0008458Y-0010781D01*
X0008347Y-0010892D01*
X0008236D01*
X0024264Y-0009281D02*
X0024319Y-0009392D01*
X0024653D01*
X0024708Y-0009281D01*
Y-0009059D01*
X0024597Y-0008948D01*
X0024264D01*
Y-0008726D01*
X0024708D01*
X0010703Y-0009059D02*
X0011036D01*
X0011092Y-0009170D01*
Y-0009281D01*
X0011036Y-0009392D01*
X0010703D01*
X0010647Y-0009281D01*
Y-0009170D01*
X0010869Y-0008726D01*
X0009947Y-0009281D02*
X0010058Y-0009392D01*
X0010280D01*
X0010392Y-0009281D01*
Y-0009170D01*
X0010169Y-0008948D01*
X0010392Y-0008726D01*
X0009947D01*
X0009414Y-0009392D02*
X0009303Y-0009281D01*
X0009247Y-0009170D01*
Y-0008948D01*
X0009303Y-0008837D01*
X0009414Y-0008726D01*
X0009525D01*
X0009636Y-0008837D01*
X0009692Y-0008948D01*
Y-0009170D01*
X0009636Y-0009281D01*
X0009525Y-0009392D01*
X0009414D01*
X0008881D02*
X0008992D01*
Y-0009281D01*
X0008881D01*
Y-0009392D01*
X0008236D02*
X0008125Y-0009281D01*
X0008069Y-0009170D01*
Y-0008948D01*
X0008125Y-0008837D01*
X0008236Y-0008726D01*
X0008347D01*
X0008458Y-0008837D01*
X0008514Y-0008948D01*
Y-0009170D01*
X0008458Y-0009281D01*
X0008347Y-0009392D01*
X0008236D01*
X0024708Y-0007892D02*
X0024264D01*
X0024708Y-0007448D01*
Y-0007337D01*
X0024653Y-0007226D01*
X0024319D01*
X0024264Y-0007337D01*
X0024008Y-0007892D02*
X0023786D01*
X0023897D02*
Y-0007226D01*
X0023786Y-0007337D01*
X0010647Y-0007781D02*
X0010703Y-0007892D01*
X0011036D01*
X0011092Y-0007781D01*
Y-0007559D01*
X0010980Y-0007448D01*
X0010647D01*
Y-0007226D01*
X0011092D01*
X0009947Y-0007781D02*
X0010058Y-0007892D01*
X0010280D01*
X0010392Y-0007781D01*
Y-0007670D01*
X0010169Y-0007448D01*
X0010392Y-0007226D01*
X0009947D01*
X0009414Y-0007892D02*
X0009303Y-0007781D01*
X0009247Y-0007670D01*
Y-0007448D01*
X0009303Y-0007337D01*
X0009414Y-0007226D01*
X0009525D01*
X0009636Y-0007337D01*
X0009692Y-0007448D01*
Y-0007670D01*
X0009636Y-0007781D01*
X0009525Y-0007892D01*
X0009414D01*
X0008881D02*
X0008992D01*
Y-0007781D01*
X0008881D01*
Y-0007892D01*
X0008236D02*
X0008125Y-0007781D01*
X0008069Y-0007670D01*
Y-0007448D01*
X0008125Y-0007337D01*
X0008236Y-0007226D01*
X0008347D01*
X0008458Y-0007337D01*
X0008514Y-0007448D01*
Y-0007670D01*
X0008458Y-0007781D01*
X0008347Y-0007892D01*
X0008236D01*
X0024653Y-0006059D02*
X0024708Y-0005948D01*
Y-0005837D01*
X0024653Y-0005726D01*
X0024319D01*
X0024264Y-0005837D01*
Y-0005948D01*
X0024319Y-0006059D01*
X0024653D01*
X0024708Y-0006170D01*
Y-0006281D01*
X0024653Y-0006392D01*
X0024319D01*
X0024264Y-0006281D01*
Y-0006170D01*
X0024319Y-0006059D01*
X0024008Y-0006392D02*
X0023786D01*
X0023897D02*
Y-0005726D01*
X0023786Y-0005837D01*
X0011092Y-0006392D02*
X0010869D01*
X0010980D02*
Y-0005726D01*
X0010869Y-0005837D01*
X0010058Y-0006281D02*
X0010169Y-0006392D01*
X0010392D01*
X0010503Y-0006281D01*
Y-0006170D01*
X0010280Y-0005948D01*
X0010503Y-0005726D01*
X0010058D01*
X0009525Y-0006392D02*
X0009414Y-0006281D01*
X0009358Y-0006170D01*
Y-0005948D01*
X0009414Y-0005837D01*
X0009525Y-0005726D01*
X0009636D01*
X0009747Y-0005837D01*
X0009803Y-0005948D01*
Y-0006170D01*
X0009747Y-0006281D01*
X0009636Y-0006392D01*
X0009525D01*
X0008992D02*
X0009103D01*
Y-0006281D01*
X0008992D01*
Y-0006392D01*
X0008347D02*
X0008236Y-0006281D01*
X0008181Y-0006170D01*
Y-0005948D01*
X0008236Y-0005837D01*
X0008347Y-0005726D01*
X0008458D01*
X0008569Y-0005837D01*
X0008625Y-0005948D01*
Y-0006170D01*
X0008569Y-0006281D01*
X0008458Y-0006392D01*
X0008347D01*
X0024708Y-0004892D02*
X0024264D01*
X0024708Y-0004448D01*
Y-0004337D01*
X0024653Y-0004226D01*
X0024319D01*
X0024264Y-0004337D01*
X0024008Y-0004892D02*
X0023786D01*
X0023897D02*
Y-0004226D01*
X0023786Y-0004337D01*
X0023419Y-0004892D02*
X0022975D01*
X0023419Y-0004448D01*
Y-0004337D01*
X0023364Y-0004226D01*
X0023030D01*
X0022975Y-0004337D01*
X0011036Y-0004559D02*
X0011092Y-0004448D01*
Y-0004337D01*
X0011036Y-0004226D01*
X0010703D01*
X0010647Y-0004337D01*
Y-0004448D01*
X0010703Y-0004559D01*
X0011036D01*
X0011092Y-0004670D01*
Y-0004781D01*
X0011036Y-0004892D01*
X0010703D01*
X0010647Y-0004781D01*
Y-0004670D01*
X0010703Y-0004559D01*
X0010392Y-0004892D02*
X0009947D01*
X0010392Y-0004448D01*
Y-0004337D01*
X0010336Y-0004226D01*
X0010003D01*
X0009947Y-0004337D01*
X0009414Y-0004892D02*
X0009303Y-0004781D01*
X0009247Y-0004670D01*
Y-0004448D01*
X0009303Y-0004337D01*
X0009414Y-0004226D01*
X0009525D01*
X0009636Y-0004337D01*
X0009692Y-0004448D01*
Y-0004670D01*
X0009636Y-0004781D01*
X0009525Y-0004892D01*
X0009414D01*
X0008881D02*
X0008992D01*
Y-0004781D01*
X0008881D01*
Y-0004892D01*
X0008236D02*
X0008125Y-0004781D01*
X0008069Y-0004670D01*
Y-0004448D01*
X0008125Y-0004337D01*
X0008236Y-0004226D01*
X0008347D01*
X0008458Y-0004337D01*
X0008514Y-0004448D01*
Y-0004670D01*
X0008458Y-0004781D01*
X0008347Y-0004892D01*
X0008236D01*
X0033112Y-0002753D02*
X0032612D01*
X0033279Y-0003253D02*
X0032612D01*
Y-0002253D01*
X0033279D01*
X0031996Y-0003253D02*
Y-0002253D01*
X0032329D02*
X0031662D01*
X0030796Y-0003253D02*
X0030712Y-0003087D01*
Y-0002420D01*
X0030796Y-0002253D01*
X0031296D01*
X0031379Y-0002420D01*
Y-0003087D01*
X0031296Y-0003253D01*
X0030796D01*
X0030429Y-0002253D02*
Y-0003253D01*
X0030262Y-0003087D01*
X0029929Y-0002420D01*
X0029762Y-0002253D01*
Y-0003253D01*
X0023925D02*
Y-0002753D01*
X0024258Y-0002253D02*
X0024008Y-0002753D01*
X0023842D01*
X0023592Y-0002253D01*
X0022975Y-0003253D02*
Y-0002253D01*
X0023308D02*
X0022642D01*
X0022025Y-0002920D02*
X0022358Y-0003253D01*
X0021692Y-0003087D02*
X0021775Y-0003253D01*
X0022108D01*
X0022192Y-0003087D01*
X0022358Y-0002920D01*
Y-0002420D01*
X0022275Y-0002253D01*
X0021775D01*
X0021692Y-0002420D01*
Y-0003087D01*
X0017408Y-0003253D02*
X0016825D01*
Y-0002253D01*
X0015958Y-0003253D02*
X0015875Y-0003087D01*
Y-0002420D01*
X0015958Y-0002253D01*
X0016458D01*
X0016542Y-0002420D01*
Y-0003087D01*
X0016458Y-0003253D01*
X0015958D01*
X0015258D02*
Y-0002253D01*
X0015592D02*
X0014925D01*
X0009587Y-0003253D02*
Y-0002253D01*
X0009421Y-0002420D01*
X0009254Y-0002753D01*
X0009087Y-0002420D01*
X0008921Y-0002253D01*
Y-0003253D01*
X0008637Y-0002920D02*
X0007971D01*
X0008637Y-0003253D02*
Y-0002753D01*
X0008387Y-0002253D01*
X0008221D01*
X0007971Y-0002753D01*
Y-0003253D01*
X0007687D02*
X0007354D01*
X0007521D02*
Y-0002253D01*
X0007687D02*
X0007354D01*
X0006321Y-0003253D02*
Y-0002253D01*
X0006237Y-0003253D02*
X0006737D01*
X0006904Y-0002920D01*
Y-0002587D01*
X0006737Y-0002253D01*
X0006237D01*
X0003150Y-0003253D02*
Y-0002253D01*
X0002983Y-0002420D01*
X0002817Y-0002753D01*
X0002650Y-0002420D01*
X0002483Y-0002253D01*
Y-0003253D01*
X0001867D02*
Y-0002753D01*
X0002200Y-0002253D02*
X0001950Y-0002753D01*
X0001783D01*
X0001533Y-0002253D01*
X0001250Y-0002420D02*
X0001167Y-0002253D01*
X0000667D01*
X0000583Y-0002420D01*
Y-0002587D01*
X0000667Y-0002753D01*
X0001167D01*
X0001250Y-0002920D01*
Y-0003087D01*
X0001167Y-0003253D01*
X0000667D01*
X0000583Y-0003087D01*
X0023437Y-0001253D02*
Y-0000253D01*
X0023771D02*
X0023104D01*
X0022571Y-0000753D02*
X0022821Y-0001253D01*
X0022154Y-0000753D02*
X0022654D01*
X0022821Y-0000587D01*
Y-0000420D01*
X0022654Y-0000253D01*
X0022154D01*
Y-0001253D01*
X0021871Y-0000920D02*
X0021204D01*
X0021871Y-0001253D02*
Y-0000753D01*
X0021621Y-0000253D01*
X0021454D01*
X0021204Y-0000753D01*
Y-0001253D01*
X0020921Y-0000753D02*
X0020254D01*
X0020921Y-0001253D02*
Y-0000253D01*
X0020254Y-0001253D02*
Y-0000253D01*
X0019971Y-0001087D02*
X0019887Y-0001253D01*
X0019387D01*
X0019304Y-0001087D01*
Y-0000420D01*
X0019387Y-0000253D01*
X0019887D01*
X0019971Y-0000420D01*
X0017696Y-0001253D02*
X0017112D01*
Y-0000253D01*
X0016829Y-0001253D02*
X0016246D01*
Y-0000253D01*
X0015962Y-0001253D02*
X0015629D01*
X0015796D02*
Y-0000253D01*
X0015962D02*
X0015629D01*
X0014929Y-0000753D02*
X0015179Y-0001253D01*
X0014512Y-0000753D02*
X0015012D01*
X0015179Y-0000587D01*
Y-0000420D01*
X0015012Y-0000253D01*
X0014512D01*
Y-0001253D01*
X0013646D02*
Y-0000253D01*
X0013562Y-0001253D02*
X0014062D01*
X0014229Y-0000920D01*
Y-0000587D01*
X0014062Y-0000253D01*
X0013562D01*
X0013530Y0005360D02*
X0013030D01*
X0013280Y0005610D02*
Y0005110D01*
X0016730Y0011360D02*
X0016230D01*
X0016480Y0011610D02*
Y0011110D01*
X0014810Y0011760D02*
X0014310D01*
X0014560Y0012010D02*
Y0011510D01*
X0013610Y0013200D02*
X0013110D01*
X0013360Y0013450D02*
Y0012950D01*
X0006570Y0013760D02*
X0006070D01*
X0006320Y0014010D02*
Y0013510D01*
X0008170Y0011600D02*
X0007670D01*
X0007920Y0011850D02*
Y0011350D01*
X0007930Y0010320D02*
X0007430D01*
X0007680Y0010570D02*
Y0010070D01*
X0007930Y0008720D02*
X0007430D01*
X0007680Y0008970D02*
Y0008470D01*
X0011370Y0019120D02*
X0010870D01*
X0011120Y0019370D02*
Y0018870D01*
X0017050Y0018880D02*
X0016550D01*
X0016800Y0019130D02*
Y0018630D01*
X0018970Y0012400D02*
X0018470D01*
X0018720Y0012650D02*
Y0012150D01*
X0020410Y0011920D02*
X0019910D01*
X0020160Y0012170D02*
Y0011670D01*
X0024170Y0020880D02*
X0023670D01*
X0023920Y0021130D02*
Y0020630D01*
X0009290Y0014320D02*
X0008790D01*
X0009040Y0014570D02*
Y0014070D01*
X0010090Y0011200D02*
X0009590D01*
X0009840Y0011450D02*
Y0010950D01*
X0010490Y0013680D02*
X0009990D01*
X0010240Y0013930D02*
Y0013430D01*
X0019450Y0010240D02*
X0018950D01*
X0019200Y0010490D02*
Y0009990D01*
X0015930Y0011760D02*
X0015430D01*
X0015680Y0012010D02*
Y0011510D01*
X0013690Y0013840D02*
X0013190D01*
X0013440Y0014090D02*
Y0013590D01*
X0025130Y0013680D02*
X0024630D01*
X0024880Y0013930D02*
Y0013430D01*
X0020970Y0014960D02*
X0020470D01*
X0020720Y0015210D02*
Y0014710D01*
X0020890Y0013280D02*
X0020390D01*
X0020640Y0013530D02*
Y0013030D01*
X0025130Y0013680D02*
X0024630D01*
X0024880Y0013930D02*
Y0013430D01*
X0025130Y0013680D02*
X0024630D01*
X0024880Y0013930D02*
Y0013430D01*
X0020890Y0013280D02*
X0020390D01*
X0020640Y0013530D02*
Y0013030D01*
X0020810Y0010320D02*
X0020310D01*
X0020560Y0010570D02*
Y0010070D01*
X0006570Y0015680D02*
X0006070D01*
X0006320Y0015930D02*
Y0015430D01*
X0004010Y0012560D02*
X0003510D01*
X0003760Y0012810D02*
Y0012310D01*
X0006570Y0015680D02*
X0006070D01*
X0006320Y0015930D02*
Y0015430D01*
X0022730Y0016960D02*
X0022230D01*
X0022480Y0017210D02*
Y0016710D01*
X0022730Y0011840D02*
X0022230D01*
X0022480Y0012090D02*
Y0011590D01*
X0020410Y0011920D02*
X0019910D01*
X0020160Y0012170D02*
Y0011670D01*
X0007370Y0005840D02*
X0006870D01*
X0007120Y0006090D02*
Y0005590D01*
X0004170Y0004480D02*
X0003670D01*
X0003920Y0004730D02*
Y0004230D01*
X0007370Y0005840D02*
X0006870D01*
X0007120Y0006090D02*
Y0005590D01*
X0007370Y0007440D02*
X0006870D01*
X0007120Y0007690D02*
Y0007190D01*
X0007370Y0005840D02*
X0006870D01*
X0007120Y0006090D02*
Y0005590D01*
X0007370Y0004400D02*
X0006870D01*
X0007120Y0004650D02*
Y0004150D01*
X0004170Y0004480D02*
X0003670D01*
X0003920Y0004730D02*
Y0004230D01*
X0004170Y0007440D02*
X0003670D01*
X0003920Y0007690D02*
Y0007190D01*
X0021850Y0005760D02*
X0021350D01*
X0021600Y0006010D02*
Y0005510D01*
X0023690Y0005680D02*
X0023190D01*
X0023440Y0005930D02*
Y0005430D01*
X0023690Y0005680D02*
X0023190D01*
X0023440Y0005930D02*
Y0005430D01*
X0020410Y0007120D02*
X0019910D01*
X0020160Y0007370D02*
Y0006870D01*
X0020410Y0007120D02*
X0019910D01*
X0020160Y0007370D02*
Y0006870D01*
X0020410Y0007120D02*
X0019910D01*
X0020160Y0007370D02*
Y0006870D01*
X0006570Y0015680D02*
X0006070D01*
X0006320Y0015930D02*
Y0015430D01*
X0020010Y0003680D02*
X0019510D01*
X0019760Y0003930D02*
Y0003430D01*
X0020970Y0006000D02*
X0020470D01*
X0020720Y0006250D02*
Y0005750D01*
X0014090Y0009600D02*
X0013590D01*
X0013840Y0009850D02*
Y0009350D01*
X0016810Y0006160D02*
X0016310D01*
X0016560Y0006410D02*
Y0005910D01*
X0007370Y0005840D02*
X0006870D01*
X0007120Y0006090D02*
Y0005590D01*
X0026010Y0008320D02*
X0025510D01*
X0025760Y0008570D02*
Y0008070D01*
X0025930Y0005440D02*
X0025430D01*
X0025680Y0005690D02*
Y0005190D01*
X0023690Y0005040D02*
X0023190D01*
X0023440Y0005290D02*
Y0004790D01*
X0023770Y0009360D02*
X0023270D01*
X0023520Y0009610D02*
Y0009110D01*
X0006570Y0012640D02*
X0006070D01*
X0006320Y0012890D02*
Y0012390D01*
X0024250Y0012240D02*
X0023750D01*
X0024000Y0012490D02*
Y0011990D01*
X0020970Y0012080D02*
X0020470D01*
X0020720Y0012330D02*
Y0011830D01*
X0015690Y0014800D02*
X0015190D01*
X0015440Y0015050D02*
Y0014550D01*
X0015770Y0018640D02*
X0015270D01*
X0015520Y0018890D02*
Y0018390D01*
X0022090Y0020240D02*
X0021590D01*
X0021840Y0020490D02*
Y0019990D01*
X0030410Y0004800D02*
X0029910D01*
X0030160Y0005050D02*
Y0004550D01*
X0030410Y0009840D02*
X0029910D01*
X0030160Y0010090D02*
Y0009590D01*
X0022090Y0019360D02*
X0021590D01*
X0021840Y0019610D02*
Y0019110D01*
X0025130Y0013680D02*
X0024630D01*
X0024880Y0013930D02*
Y0013430D01*
X0030410Y0013200D02*
X0029910D01*
X0030160Y0013450D02*
Y0012950D01*
X0030410Y0009840D02*
X0029910D01*
X0030160Y0010090D02*
Y0009590D01*
X0028490Y0012400D02*
X0027990D01*
X0028240Y0012650D02*
Y0012150D01*
X0024250Y0012240D02*
X0023750D01*
X0024000Y0012490D02*
Y0011990D01*
X0013290Y0009600D02*
X0012790D01*
X0013040Y0009850D02*
Y0009350D01*
X0013450Y0008320D02*
X0012950D01*
X0013200Y0008570D02*
Y0008070D01*
X0017450Y0008320D02*
X0016950D01*
X0017200Y0008570D02*
Y0008070D01*
X0017690Y0004400D02*
X0017190D01*
X0017440Y0004650D02*
Y0004150D01*
X0009290Y0016400D02*
X0008790D01*
X0009040Y0016650D02*
Y0016150D01*
X0018970Y0011520D02*
X0018470D01*
X0018720Y0011770D02*
Y0011270D01*
X0018490Y0008480D02*
X0017990D01*
X0018240Y0008730D02*
Y0008230D01*
X0008730Y0020080D02*
X0008230D01*
X0008480Y0020330D02*
Y0019830D01*
X0013050Y0014800D02*
X0012550D01*
X0012800Y0015050D02*
Y0014550D01*
X0014730Y0018000D02*
X0014230D01*
X0014480Y0018250D02*
Y0017750D01*
X0027210Y0018640D02*
X0026710D01*
X0026960Y0018890D02*
Y0018390D01*
X0027210Y0016560D02*
X0026710D01*
X0026960Y0016810D02*
Y0016310D01*
X0013050Y0014800D02*
X0012550D01*
X0012800Y0015050D02*
Y0014550D01*
X0012650Y0008400D02*
X0012150D01*
X0012400Y0008650D02*
Y0008150D01*
X0009530Y0007840D02*
X0009030D01*
X0009280Y0008090D02*
Y0007590D01*
X0015530Y0008720D02*
X0015030D01*
X0015280Y0008970D02*
Y0008470D01*
X0015530Y0010080D02*
X0015030D01*
X0015280Y0010330D02*
Y0009830D01*
X0023770Y0009360D02*
X0023270D01*
X0023520Y0009610D02*
Y0009110D01*
X0023130Y0005840D02*
X0022630D01*
X0022880Y0006090D02*
Y0005590D01*
X0023770Y0009360D02*
X0023270D01*
X0023520Y0009610D02*
Y0009110D01*
X0023690Y0005040D02*
X0023190D01*
X0023440Y0005290D02*
Y0004790D01*
X0025930Y0005440D02*
X0025430D01*
X0025680Y0005690D02*
Y0005190D01*
X0026010Y0008320D02*
X0025510D01*
X0025760Y0008570D02*
Y0008070D01*
X0020490Y0015360D02*
X0019990D01*
X0020240Y0015610D02*
Y0015110D01*
X0026170Y0017040D02*
X0025670D01*
X0025920Y0017290D02*
Y0016790D01*
X0028490Y0020880D02*
X0027990D01*
X0028240Y0021130D02*
Y0020630D01*
X0026410Y0004240D02*
X0025910D01*
X0026160Y0004490D02*
Y0003990D01*
X0026810Y0008800D02*
X0026310D01*
X0026560Y0009050D02*
Y0008550D01*
X0008330Y0014560D02*
X0007830D01*
X0008080Y0014810D02*
Y0014310D01*
X0029770Y0008640D02*
X0029270D01*
X0029520Y0008890D02*
Y0008390D01*
X0029770Y0011840D02*
X0029270D01*
X0029520Y0012090D02*
Y0011590D01*
X0027130Y0012000D02*
X0026630D01*
X0026880Y0012250D02*
Y0011750D01*
X0025050Y0011200D02*
X0024550D01*
X0024800Y0011450D02*
Y0010950D01*
X0016810Y0003200D02*
X0016310D01*
X0016560Y0003450D02*
Y0002950D01*
X0018970Y0008880D02*
X0018470D01*
X0018720Y0009130D02*
Y0008630D01*
X0025130Y0007920D02*
X0024630D01*
X0024880Y0008170D02*
Y0007670D01*
X0025050Y0009360D02*
X0024550D01*
X0024800Y0009610D02*
Y0009110D01*
X0012490Y0010320D02*
X0011990D01*
X0012240Y0010570D02*
Y0010070D01*
X0012010Y0002560D02*
X0011510D01*
X0011760Y0002810D02*
Y0002310D01*
X0025930Y0009520D02*
X0025430D01*
X0025680Y0009770D02*
Y0009270D01*
X0025690Y0002400D02*
X0025190D01*
X0025440Y0002650D02*
Y0002150D01*
X0019690Y0007920D02*
X0019190D01*
X0019440Y0008170D02*
Y0007670D01*
X0019850Y0016640D02*
X0019350D01*
X0019600Y0016890D02*
Y0016390D01*
X0026730Y0017840D02*
X0026230D01*
X0026480Y0018090D02*
Y0017590D01*
X0026250Y0014640D02*
X0025750D01*
X0026000Y0014890D02*
Y0014390D01*
X0028090Y0014800D02*
X0027590D01*
X0027840Y0015050D02*
Y0014550D01*
X0027690Y0007600D02*
X0027190D01*
X0027440Y0007850D02*
Y0007350D01*
X0029130Y0020880D02*
X0028630D01*
X0028880Y0021130D02*
Y0020630D01*
X0021770Y0007760D02*
X0021270D01*
X0021520Y0008010D02*
Y0007510D01*
X0024090Y0014640D02*
X0023590D01*
X0023840Y0014890D02*
Y0014390D01*
X0025850Y0011840D02*
X0025350D01*
X0025600Y0012090D02*
Y0011590D01*
X0024330Y0005680D02*
X0023830D01*
X0024080Y0005930D02*
Y0005430D01*
X0025130Y0005600D02*
X0024630D01*
X0024880Y0005850D02*
Y0005350D01*
X0025530Y0004160D02*
X0025030D01*
X0025280Y0004410D02*
Y0003910D01*
X0014810Y0008320D02*
X0014310D01*
X0014560Y0008570D02*
Y0008070D01*
X0014970Y0009840D02*
X0014470D01*
X0014720Y0010090D02*
Y0009590D01*
X0027210Y0016560D02*
X0026710D01*
X0026960Y0016810D02*
Y0016310D01*
X0027210Y0012800D02*
X0026710D01*
X0026960Y0013050D02*
Y0012550D01*
X0021370Y0012880D02*
X0020870D01*
X0021120Y0013130D02*
Y0012630D01*
X0018650Y0016720D02*
X0018150D01*
X0018400Y0016970D02*
Y0016470D01*
X0023770Y0011840D02*
X0023270D01*
X0023520Y0012090D02*
Y0011590D01*
X0023290Y0004240D02*
X0022790D01*
X0023040Y0004490D02*
Y0003990D01*
X0020010Y0017920D02*
X0019510D01*
X0019760Y0018170D02*
Y0017670D01*
X0018170Y0016320D02*
X0017670D01*
X0017920Y0016570D02*
Y0016070D01*
X0029050Y0006320D02*
X0028550D01*
X0028800Y0006570D02*
Y0006070D01*
X0029050Y0014160D02*
X0028550D01*
X0028800Y0014410D02*
Y0013910D01*
X0027690Y0011200D02*
X0027190D01*
X0027440Y0011450D02*
Y0010950D01*
X0027690Y0004640D02*
X0027190D01*
X0027440Y0004890D02*
Y0004390D01*
X0014890Y0017360D02*
X0014390D01*
X0014640Y0017610D02*
Y0017110D01*
X0026730Y0009520D02*
X0026230D01*
X0026480Y0009770D02*
Y0009270D01*
X0026570Y0002320D02*
X0026070D01*
X0026320Y0002570D02*
Y0002070D01*
X0017690Y0016720D02*
X0017190D01*
X0017440Y0016970D02*
Y0016470D01*
X0006090Y0014160D02*
X0005590D01*
X0005840Y0014410D02*
Y0013910D01*
X0022650Y0002080D02*
X0022150D01*
X0022400Y0002330D02*
Y0001830D01*
X0022650Y0004160D02*
X0022150D01*
X0022400Y0004410D02*
Y0003910D01*
X0027130Y0011360D02*
X0026630D01*
X0026880Y0011610D02*
Y0011110D01*
X0027050Y0004960D02*
X0026550D01*
X0026800Y0005210D02*
Y0004710D01*
X0023770Y0009360D02*
X0023270D01*
X0023520Y0009610D02*
Y0009110D01*
X0023690Y0005040D02*
X0023190D01*
X0023440Y0005290D02*
Y0004790D01*
X0025930Y0005440D02*
X0025430D01*
X0025680Y0005690D02*
Y0005190D01*
X0026010Y0008320D02*
X0025510D01*
X0025760Y0008570D02*
Y0008070D01*
X0004650Y0014160D02*
X0004150D01*
X0004400Y0014410D02*
Y0013910D01*
X0004650Y0015760D02*
X0004150D01*
X0004400Y0016010D02*
Y0015510D01*
X0005050Y0019840D02*
X0004550D01*
X0004800Y0020090D02*
Y0019590D01*
X0004490Y0018960D02*
X0003990D01*
X0004240Y0019210D02*
Y0018710D01*
X0019530Y0018320D02*
X0019030D01*
X0019280Y0018570D02*
Y0018070D01*
X0019370Y0016000D02*
X0018870D01*
X0019120Y0016250D02*
Y0015750D01*
X0015690Y0013360D02*
X0015190D01*
X0015440Y0013610D02*
Y0013110D01*
X0017530Y0011280D02*
X0017030D01*
X0017280Y0011530D02*
Y0011030D01*
X0010730Y0016560D02*
X0010230D01*
X0010480Y0016810D02*
Y0016310D01*
X0010650Y0018480D02*
X0010150D01*
X0010400Y0018730D02*
Y0018230D01*
X0021850Y0002080D02*
X0021350D01*
X0021600Y0002330D02*
Y0001830D01*
X0016810Y0008080D02*
X0016310D01*
X0016560Y0008330D02*
Y0007830D01*
X0016650Y0006720D02*
X0016150D01*
X0016400Y0006970D02*
Y0006470D01*
X0017210Y0005680D02*
X0016710D01*
X0016960Y0005930D02*
Y0005430D01*
X0017290Y0007280D02*
X0016790D01*
X0017040Y0007530D02*
Y0007030D01*
X0010810Y0012640D02*
X0010310D01*
X0010560Y0012890D02*
Y0012390D01*
X0023370Y0003440D02*
X0022870D01*
X0023120Y0003690D02*
Y0003190D01*
X0023290Y0002000D02*
X0022790D01*
X0023040Y0002250D02*
Y0001750D01*
X0010570Y0022320D02*
X0010070D01*
X0010320Y0022570D02*
Y0022070D01*
X0010570Y0019120D02*
X0010070D01*
X0010320Y0019370D02*
Y0018870D01*
X0014010Y0014640D02*
X0013510D01*
X0013760Y0014890D02*
Y0014390D01*
X0016330Y0009840D02*
X0015830D01*
X0016080Y0010090D02*
Y0009590D01*
X0011450Y0002720D02*
X0010950D01*
X0011200Y0002970D02*
Y0002470D01*
X0012170Y0011120D02*
X0011670D01*
X0011920Y0011370D02*
Y0010870D01*
X0020810Y0016560D02*
X0020310D01*
X0020560Y0016810D02*
Y0016310D01*
X0020810Y0017920D02*
X0020310D01*
X0020560Y0018170D02*
Y0017670D01*
X0020010Y0017920D02*
X0019510D01*
X0019760Y0018170D02*
Y0017670D01*
X0029450Y0015120D02*
X0028950D01*
X0029200Y0015370D02*
Y0014870D01*
X0029450Y0002560D02*
X0028950D01*
X0029200Y0002810D02*
Y0002310D01*
X0010090Y0014960D02*
X0009590D01*
X0009840Y0015210D02*
Y0014710D01*
X0011290Y0021440D02*
X0010790D01*
X0011040Y0021690D02*
Y0021190D01*
X0018570Y0005920D02*
X0018070D01*
X0018320Y0006170D02*
Y0005670D01*
X0018170Y0012240D02*
X0017670D01*
X0017920Y0012490D02*
Y0011990D01*
X0025290Y0020880D02*
X0024790D01*
X0025040Y0021130D02*
Y0020630D01*
X0024170Y0020880D02*
X0023670D01*
X0023920Y0021130D02*
Y0020630D01*
X0018650Y0014880D02*
X0018150D01*
X0018400Y0015130D02*
Y0014630D01*
X0020890Y0019040D02*
X0020390D01*
X0020640Y0019290D02*
Y0018790D01*
X0020810Y0015920D02*
X0020310D01*
X0020560Y0016170D02*
Y0015670D01*
X0019210Y0015120D02*
X0018710D01*
X0018960Y0015370D02*
Y0014870D01*
X0019370Y0010880D02*
X0018870D01*
X0019120Y0011130D02*
Y0010630D01*
X0018730Y0017600D02*
X0018230D01*
X0018480Y0017850D02*
Y0017350D01*
X0001290Y0014960D02*
X0000790D01*
X0001040Y0015210D02*
Y0014710D01*
X0001290Y0018000D02*
X0000790D01*
X0001040Y0018250D02*
Y0017750D01*
X0020250Y0017120D02*
X0019750D01*
X0020000Y0017370D02*
Y0016870D01*
X0020330Y0020160D02*
X0019830D01*
X0020080Y0020410D02*
Y0019910D01*
X0005610Y0004080D02*
X0005110D01*
X0005360Y0004330D02*
Y0003830D01*
X0005610Y0008320D02*
X0005110D01*
X0005360Y0008570D02*
Y0008070D01*
X0015610Y0006000D02*
X0015110D01*
X0015360Y0006250D02*
Y0005750D01*
X0015370Y0011920D02*
X0014870D01*
X0015120Y0012170D02*
Y0011670D01*
X0020970Y0006000D02*
X0020470D01*
X0020720Y0006250D02*
Y0005750D01*
X0018730Y0006560D02*
X0018230D01*
X0018480Y0006810D02*
Y0006310D01*
X0018970Y0011520D02*
X0018470D01*
X0018720Y0011770D02*
Y0011270D01*
X0018090Y0013600D02*
X0017590D01*
X0017840Y0013850D02*
Y0013350D01*
X0015210Y0018800D02*
X0014710D01*
X0014960Y0019050D02*
Y0018550D01*
X0011930Y0018800D02*
X0011430D01*
X0011680Y0019050D02*
Y0018550D01*
X0018810Y0004080D02*
X0018310D01*
X0018560Y0004330D02*
Y0003830D01*
X0022410Y0014800D02*
X0021910D01*
X0022160Y0015050D02*
Y0014550D01*
X0022250Y0012480D02*
X0021750D01*
X0022000Y0012730D02*
Y0012230D01*
X0018330Y0007920D02*
X0017830D01*
X0018080Y0008170D02*
Y0007670D01*
X0021530Y0018960D02*
X0021030D01*
X0021280Y0019210D02*
Y0018710D01*
X0022010Y0013520D02*
X0021510D01*
X0021760Y0013770D02*
Y0013270D01*
X0011210Y0009680D02*
X0010710D01*
X0010960Y0009930D02*
Y0009430D01*
X0011210Y0004240D02*
X0010710D01*
X0010960Y0004490D02*
Y0003990D01*
X0017690Y0004400D02*
X0017190D01*
X0017440Y0004650D02*
Y0004150D01*
X0018170Y0011280D02*
X0017670D01*
X0017920Y0011530D02*
Y0011030D01*
X0008970Y0004480D02*
X0008470D01*
X0008720Y0004730D02*
Y0004230D01*
X0013050Y0004880D02*
X0012550D01*
X0012800Y0005130D02*
Y0004630D01*
X0017130Y0010080D02*
X0016630D01*
X0016880Y0010330D02*
Y0009830D01*
X0020090Y0012720D02*
X0019590D01*
X0019840Y0012970D02*
Y0012470D01*
X0018490Y0012800D02*
X0017990D01*
X0018240Y0013050D02*
Y0012550D01*
X0014970Y0013520D02*
X0014470D01*
X0014720Y0013770D02*
Y0013270D01*
X0008170Y0020880D02*
X0007670D01*
X0007920Y0021130D02*
Y0020630D01*
X0014410Y0006320D02*
X0013910D01*
X0014160Y0006570D02*
Y0006070D01*
X0014570Y0014960D02*
X0014070D01*
X0014320Y0015210D02*
Y0014710D01*
X0016490Y0019120D02*
X0015990D01*
X0016240Y0019370D02*
Y0018870D01*
X0016250Y0014560D02*
X0015750D01*
X0016000Y0014810D02*
Y0014310D01*
X0009450Y0003760D02*
X0008950D01*
X0009200Y0004010D02*
Y0003510D01*
X0009450Y0007040D02*
X0008950D01*
X0009200Y0007290D02*
Y0006790D01*
X0009530Y0010480D02*
X0009030D01*
X0009280Y0010730D02*
Y0010230D01*
X0009850Y0013520D02*
X0009350D01*
X0009600Y0013770D02*
Y0013270D01*
X0004650Y0016800D02*
X0004150D01*
X0004400Y0017050D02*
Y0016550D01*
X0004650Y0014160D02*
X0004150D01*
X0004400Y0014410D02*
Y0013910D01*
X0006490Y0021760D02*
X0005990D01*
X0006240Y0022010D02*
Y0021510D01*
X0007050Y0019600D02*
X0006550D01*
X0006800Y0019850D02*
Y0019350D01*
X0001575Y-0010420D02*
Y-0010920D01*
X0002075Y-0010420D02*
X0001575D01*
X0002075Y-0010920D02*
Y-0010420D01*
X0001575Y-0010920D02*
X0002075D01*
Y-0010670D02*
X0001575D01*
X0001825Y-0010420D02*
Y-0010920D01*
Y-0008920D02*
X0001575Y-0009170D01*
X0002075D02*
X0001825Y-0008920D01*
Y-0009420D02*
X0002075Y-0009170D01*
X0001575D02*
X0001825Y-0009420D01*
X0001575Y-0007420D02*
Y-0007920D01*
X0002075Y-0007420D02*
X0001575D01*
X0002075Y-0007920D02*
Y-0007420D01*
X0001575Y-0007920D02*
X0002075D01*
Y-0007420D02*
X0001575Y-0007920D01*
X0002075D02*
X0001575Y-0007420D01*
X0002075Y-0005920D02*
X0001575Y-0006420D01*
X0002075D02*
X0001575Y-0005920D01*
X0002075Y-0004670D02*
X0001575D01*
X0001825Y-0004420D02*
Y-0004920D01*
X0037300Y-0013470D02*
X-0000050D01*
X0037250Y-0013420D02*
X0000000D01*
X0037250Y-0011420D02*
X0000000D01*
X0037250Y-0009920D02*
X0000000D01*
X0037250Y-0008420D02*
X0000000D01*
X0037250Y-0006920D02*
X0000000D01*
X0037250Y-0005420D02*
X0000000D01*
X0037250Y-0003920D02*
X0000000D01*
X0037250Y-0003870D02*
X0000000D01*
X0037250Y-0001920D02*
X0000000D01*
X0037250Y-0001870D02*
X0000000D01*
X0037250Y0000080D02*
X0000000D01*
X0037300Y0000130D02*
X-0000050D01*
X0037300Y-0013420D02*
Y0000080D01*
X0037250Y-0013420D02*
Y0000080D01*
X0025708Y-0013420D02*
Y-0001920D01*
X0020158Y-0013420D02*
Y-0001920D01*
X0012092Y-0011420D02*
Y-0001920D01*
X0003700Y-0011420D02*
Y-0001920D01*
X0003650Y-0011420D02*
Y-0001920D01*
X-0000050Y-0013420D02*
Y0000080D01*
X0000000Y-0013420D02*
Y0000080D01*
X-0002100Y0022700D02*
X0030550D01*
Y0001350D01*
X-0002100D01*
Y0022700D01*
X0016170Y0012960D02*
X0015670D01*
X0015920Y0013210D02*
Y0012710D01*
X0016970Y0010720D02*
X0016470D01*
X0016720Y0010970D02*
Y0010470D01*
X0018490Y0010320D02*
X0017990D01*
X0018240Y0010570D02*
Y0010070D01*
X0025130Y0017040D02*
X0024630D01*
X0024880Y0017290D02*
Y0016790D01*
X0028490Y0017120D02*
X0027990D01*
X0028240Y0017370D02*
Y0016870D01*
X0021610Y0017040D02*
X0021110D01*
X0021360Y0017290D02*
Y0016790D01*
X0011370Y0010880D02*
X0010870D01*
X0011120Y0011130D02*
Y0010630D01*
X0010890Y0014800D02*
X0010390D01*
X0010640Y0015050D02*
Y0014550D01*
X0019610Y0006240D02*
X0019110D01*
X0019360Y0006490D02*
Y0005990D01*
X0006650Y0010560D02*
X0006150D01*
X0006400Y0010810D02*
Y0010310D01*
X0022810Y0021850D02*
X0022310Y0021350D01*
X0022810D02*
X0022310Y0021850D01*
X0023810D02*
X0023310Y0021350D01*
X0023810D02*
X0023310Y0021850D01*
X-0001130Y0004650D02*
Y0004150D01*
X-0000630Y0004650D02*
X-0001130D01*
X-0000630Y0004150D02*
Y0004650D01*
X-0001130Y0004150D02*
X-0000630D01*
Y0004650D02*
X-0001130Y0004150D01*
X-0000630D02*
X-0001130Y0004650D01*
Y0003690D02*
Y0003190D01*
X-0000630Y0003690D02*
X-0001130D01*
X-0000630Y0003190D02*
Y0003690D01*
X-0001130Y0003190D02*
X-0000630D01*
Y0003690D02*
X-0001130Y0003190D01*
X-0000630D02*
X-0001130Y0003690D01*
Y0002570D02*
Y0002070D01*
X-0000630Y0002570D02*
X-0001130D01*
X-0000630Y0002070D02*
Y0002570D01*
X-0001130Y0002070D02*
X-0000630D01*
Y0002570D02*
X-0001130Y0002070D01*
X-0000630D02*
X-0001130Y0002570D01*
X0003040Y0022010D02*
X0002790Y0021760D01*
X0003290D02*
X0003040Y0022010D01*
Y0021510D02*
X0003290Y0021760D01*
X0002790D02*
X0003040Y0021510D01*
X-0001440Y0022010D02*
X-0001690Y0021760D01*
X-0001190D02*
X-0001440Y0022010D01*
Y0021510D02*
X-0001190Y0021760D01*
X-0001690D02*
X-0001440Y0021510D01*
X0000720Y0022010D02*
X0000470Y0021760D01*
X0000970D02*
X0000720Y0022010D01*
Y0021510D02*
X0000970Y0021760D01*
X0000470D02*
X0000720Y0021510D01*
X-0000880Y0007450D02*
X-0001130Y0007200D01*
X-0000630D02*
X-0000880Y0007450D01*
Y0006950D02*
X-0000630Y0007200D01*
X-0001130D02*
X-0000880Y0006950D01*
Y0006010D02*
X-0001130Y0005760D01*
X-0000630D02*
X-0000880Y0006010D01*
Y0005510D02*
X-0000630Y0005760D01*
X-0001130D02*
X-0000880Y0005510D01*
X0029430Y0020350D02*
X0028930Y0019850D01*
X0029430D02*
X0028930Y0020350D01*
X0029430Y0019350D02*
X0028930Y0018850D01*
X0029430D02*
X0028930Y0019350D01*
X0002870Y0016070D02*
X0002370Y0015570D01*
X0002870D02*
X0002370Y0016070D01*
X0003870D02*
X0003370Y0015570D01*
X0003870D02*
X0003370Y0016070D01*
X0004790Y0004630D02*
X0004290Y0004130D01*
X0004790D02*
X0004290Y0004630D01*
X0004790Y0005630D02*
X0004290Y0005130D01*
X0004790D02*
X0004290Y0005630D01*
X0007990Y0004630D02*
X0007490Y0004130D01*
X0007990D02*
X0007490Y0004630D01*
X0007990Y0005630D02*
X0007490Y0005130D01*
X0007990D02*
X0007490Y0005630D01*
X0006710Y0022090D02*
Y0021590D01*
X0007210Y0022090D02*
X0006710D01*
X0007210Y0021590D02*
Y0022090D01*
X0006710Y0021590D02*
X0007210D01*
Y0022090D02*
X0006710Y0021590D01*
X0007210D02*
X0006710Y0022090D01*
X0007670D02*
Y0021590D01*
X0008170Y0022090D02*
X0007670D01*
X0008170Y0021590D02*
Y0022090D01*
X0007670Y0021590D02*
X0008170D01*
Y0022090D02*
X0007670Y0021590D01*
X0008170D02*
X0007670Y0022090D01*
X0008790D02*
Y0021590D01*
X0009290Y0022090D02*
X0008790D01*
X0009290Y0021590D02*
Y0022090D01*
X0008790Y0021590D02*
X0009290D01*
Y0022090D02*
X0008790Y0021590D01*
X0009290D02*
X0008790Y0022090D01*
X0002870Y0003210D02*
Y0002710D01*
X0003370Y0003210D02*
X0002870D01*
X0003370Y0002710D02*
Y0003210D01*
X0002870Y0002710D02*
X0003370D01*
Y0003210D02*
X0002870Y0002710D01*
X0003370D02*
X0002870Y0003210D01*
X0003830D02*
Y0002710D01*
X0004330Y0003210D02*
X0003830D01*
X0004330Y0002710D02*
Y0003210D01*
X0003830Y0002710D02*
X0004330D01*
Y0003210D02*
X0003830Y0002710D01*
X0004330D02*
X0003830Y0003210D01*
X0004950D02*
Y0002710D01*
X0005450Y0003210D02*
X0004950D01*
X0005450Y0002710D02*
Y0003210D01*
X0004950Y0002710D02*
X0005450D01*
Y0003210D02*
X0004950Y0002710D01*
X0005450D02*
X0004950Y0003210D01*
X0017110Y0003050D02*
Y0002550D01*
X0017610Y0003050D02*
X0017110D01*
X0017610Y0002550D02*
Y0003050D01*
X0017110Y0002550D02*
X0017610D01*
Y0003050D02*
X0017110Y0002550D01*
X0017610D02*
X0017110Y0003050D01*
X0018070D02*
Y0002550D01*
X0018570Y0003050D02*
X0018070D01*
X0018570Y0002550D02*
Y0003050D01*
X0018070Y0002550D02*
X0018570D01*
Y0003050D02*
X0018070Y0002550D01*
X0018570D02*
X0018070Y0003050D01*
X0019190D02*
Y0002550D01*
X0019690Y0003050D02*
X0019190D01*
X0019690Y0002550D02*
Y0003050D01*
X0019190Y0002550D02*
X0019690D01*
Y0003050D02*
X0019190Y0002550D01*
X0019690D02*
X0019190Y0003050D01*
X-0000790Y0015130D02*
X-0001290Y0014630D01*
X-0000790D02*
X-0001290Y0015130D01*
X-0000790Y0016130D02*
X-0001290Y0015630D01*
X-0000790D02*
X-0001290Y0016130D01*
X0012940Y0020220D02*
Y0019720D01*
X0013440Y0020220D02*
X0012940D01*
X0013440Y0019720D02*
Y0020220D01*
X0012940Y0019720D02*
X0013440D01*
Y0019970D02*
X0012940D01*
X0013190Y0020220D02*
Y0019720D01*
X0012940Y0021220D02*
Y0020720D01*
X0013440Y0021220D02*
X0012940D01*
X0013440Y0020720D02*
Y0021220D01*
X0012940Y0020720D02*
X0013440D01*
Y0020970D02*
X0012940D01*
X0013190Y0021220D02*
Y0020720D01*
X0013940Y0020220D02*
Y0019720D01*
X0014440Y0020220D02*
X0013940D01*
X0014440Y0019720D02*
Y0020220D01*
X0013940Y0019720D02*
X0014440D01*
Y0019970D02*
X0013940D01*
X0014190Y0020220D02*
Y0019720D01*
X0013940Y0021220D02*
Y0020720D01*
X0014440Y0021220D02*
X0013940D01*
X0014440Y0020720D02*
Y0021220D01*
X0013940Y0020720D02*
X0014440D01*
Y0020970D02*
X0013940D01*
X0014190Y0021220D02*
Y0020720D01*
X0014940Y0020220D02*
Y0019720D01*
X0015440Y0020220D02*
X0014940D01*
X0015440Y0019720D02*
Y0020220D01*
X0014940Y0019720D02*
X0015440D01*
Y0019970D02*
X0014940D01*
X0015190Y0020220D02*
Y0019720D01*
X0014940Y0021220D02*
Y0020720D01*
X0015440Y0021220D02*
X0014940D01*
X0015440Y0020720D02*
Y0021220D01*
X0014940Y0020720D02*
X0015440D01*
Y0020970D02*
X0014940D01*
X0015190Y0021220D02*
Y0020720D01*
X0015940Y0020220D02*
Y0019720D01*
X0016440Y0020220D02*
X0015940D01*
X0016440Y0019720D02*
Y0020220D01*
X0015940Y0019720D02*
X0016440D01*
Y0019970D02*
X0015940D01*
X0016190Y0020220D02*
Y0019720D01*
X0015940Y0021220D02*
Y0020720D01*
X0016440Y0021220D02*
X0015940D01*
X0016440Y0020720D02*
Y0021220D01*
X0015940Y0020720D02*
X0016440D01*
Y0020970D02*
X0015940D01*
X0016190Y0021220D02*
Y0020720D01*
X0016940Y0020220D02*
Y0019720D01*
X0017440Y0020220D02*
X0016940D01*
X0017440Y0019720D02*
Y0020220D01*
X0016940Y0019720D02*
X0017440D01*
Y0019970D02*
X0016940D01*
X0017190Y0020220D02*
Y0019720D01*
X0016940Y0021220D02*
Y0020720D01*
X0017440Y0021220D02*
X0016940D01*
X0017440Y0020720D02*
Y0021220D01*
X0016940Y0020720D02*
X0017440D01*
Y0020970D02*
X0016940D01*
X0017190Y0021220D02*
Y0020720D01*
X0017940Y0020220D02*
Y0019720D01*
X0018440Y0020220D02*
X0017940D01*
X0018440Y0019720D02*
Y0020220D01*
X0017940Y0019720D02*
X0018440D01*
Y0019970D02*
X0017940D01*
X0018190Y0020220D02*
Y0019720D01*
X0017940Y0021220D02*
Y0020720D01*
X0018440Y0021220D02*
X0017940D01*
X0018440Y0020720D02*
Y0021220D01*
X0017940Y0020720D02*
X0018440D01*
Y0020970D02*
X0017940D01*
X0018190Y0021220D02*
Y0020720D01*
X0018940Y0020220D02*
Y0019720D01*
X0019440Y0020220D02*
X0018940D01*
X0019440Y0019720D02*
Y0020220D01*
X0018940Y0019720D02*
X0019440D01*
Y0019970D02*
X0018940D01*
X0019190Y0020220D02*
Y0019720D01*
X0018940Y0021220D02*
Y0020720D01*
X0019440Y0021220D02*
X0018940D01*
X0019440Y0020720D02*
Y0021220D01*
X0018940Y0020720D02*
X0019440D01*
Y0020970D02*
X0018940D01*
X0019190Y0021220D02*
Y0020720D01*
X0004540Y0011580D02*
X0004040Y0011080D01*
X0004540D02*
X0004040Y0011580D01*
X0003540D02*
X0003040Y0011080D01*
X0003540D02*
X0003040Y0011580D01*
X0007250Y0003210D02*
X0006750Y0002710D01*
X0007250D02*
X0006750Y0003210D01*
X0008250D02*
X0007750Y0002710D01*
X0008250D02*
X0007750Y0003210D01*
X0021050Y0003130D02*
X0020550Y0002630D01*
X0021050D02*
X0020550Y0003130D01*
X0022050D02*
X0021550Y0002630D01*
X0022050D02*
X0021550Y0003130D01*
M02*
