*
G04 Mass Parameters ***
*
G04 Image ***
*
%INK:\SENIOR_DESIGN\SCHEMATICS\SUBMIT_FILES\DETECTOR.SMB*%
%ICAS*%
%MOIN*%
%IPPOS*%
%ASAXBY*%
G74*%FSLAN2X34Y34*%
*
G04 Aperture Definitions ***
*
%ADD10R,0.0500X0.0500*%
%ADD11C,0.0450*%
%ADD12C,0.0520*%
%ADD13R,0.0520X0.0520*%
%ADD14C,0.0620*%
%ADD15R,0.0620X0.0620*%
%ADD16R,0.0400X0.0340*%
%ADD17R,0.0500X0.0340*%
%ADD18R,0.0340X0.0400*%
%ADD19R,0.0340X0.0500*%
%ADD20C,0.0580*%
%ADD21R,0.0580X0.0580*%
%ADD22C,0.0550*%
%ADD23O,0.0180X0.1000*%
%ADD24R,0.0180X0.1000*%
%ADD25O,0.1000X0.0180*%
%ADD26R,0.1000X0.0180*%
%ADD27O,0.1000X0.0250*%
%ADD28R,0.1000X0.0250*%
%ADD29C,0.0500*%
%ADD30C,0.0500*%
%ADD31C,0.0120*%
%ADD32C,0.0500*%
%ADD33R,0.0500X0.0500*%
%ADD34C,0.0450*%
%ADD35C,0.0520*%
%ADD36R,0.0520X0.0520*%
%ADD37C,0.0620*%
%ADD38R,0.0620X0.0620*%
%ADD39C,0.0580*%
%ADD40R,0.0580X0.0580*%
%ADD41C,0.0550*%
%ADD42O,0.0940X0.0250*%
%ADD43R,0.0940X0.0250*%
%ADD44C,0.0500*%
%ADD45C,0.0650*%
%ADD46C,0.0720*%
%ADD47R,0.0720X0.0720*%
%ADD48C,0.0820*%
%ADD49R,0.0820X0.0820*%
%ADD50C,0.0780*%
%ADD51R,0.0780X0.0780*%
%ADD52C,0.0750*%
%ADD53C,0.0500*%
%ADD54C,0.0750*%
%ADD55C,0.0650*%
%ADD56C,0.0720*%
%ADD57R,0.0720X0.0720*%
%ADD58C,0.0820*%
%ADD59R,0.0820X0.0820*%
%ADD60C,0.0780*%
%ADD61R,0.0780X0.0780*%
%ADD62C,0.0750*%
%ADD63R,0.0500X0.0500*%
%ADD64C,0.0450*%
%ADD65C,0.0520*%
%ADD66R,0.0520X0.0520*%
%ADD67C,0.0620*%
%ADD68R,0.0620X0.0620*%
%ADD69R,0.0400X0.0340*%
%ADD70R,0.0500X0.0340*%
%ADD71R,0.0340X0.0400*%
%ADD72R,0.0340X0.0500*%
%ADD73C,0.0580*%
%ADD74R,0.0580X0.0580*%
%ADD75C,0.0600*%
%ADD76O,0.0180X0.1000*%
%ADD77R,0.0180X0.1000*%
%ADD78O,0.1000X0.0180*%
%ADD79R,0.1000X0.0180*%
%ADD80O,0.1000X0.0250*%
%ADD81R,0.1000X0.0250*%
%ADD82C,0.0550*%
%ADD83C,0.0550*%
%ADD84C,0.0600*%
%ADD85C,0.0080*%
%ADD86C,0.0100*%
%ADD87C,0.0060*%
%ADD88C,0.0010*%
%ADD89O,0.0250X0.0940*%
%ADD90R,0.0250X0.0940*%
%ADD91O,0.0250X0.1000*%
%ADD92R,0.0250X0.1000*%
%ADD93O,0.0860X0.0250*%
%ADD94R,0.0860X0.0250*%
%ADD95C,0.0610*%
%ADD96C,0.0610*%
%ADD97O,0.0250X0.0940*%
%ADD98R,0.0250X0.0940*%
%ADD99O,0.0250X0.1000*%
%ADD100R,0.0250X0.1000*%
%ADD101R,0.0340X0.0400*%
%ADD102R,0.0340X0.0500*%
%ADD103R,0.0400X0.0340*%
%ADD104R,0.0500X0.0340*%
%ADD105O,0.1000X0.0180*%
%ADD106R,0.1000X0.0180*%
%ADD107O,0.0180X0.1000*%
%ADD108R,0.0180X0.1000*%
%ADD109O,0.0250X0.0940*%
%ADD110R,0.0250X0.0940*%
%ADD111O,0.0250X0.1000*%
%ADD112R,0.0250X0.1000*%
%ADD113O,0.1000X0.0250*%
%ADD114R,0.1000X0.0250*%
*
G04 Plot Data ***
*
G54D33*
X0024040Y0012960D03*
X0024880D03*
G54D35*
X0022560Y0021600D03*
X0023560D03*
X0029180Y0020100D03*
Y0019100D03*
X0002620Y0015820D03*
X0003620D03*
X0004540Y0004380D03*
Y0005380D03*
X0007740Y0004380D03*
Y0005380D03*
X-0001040Y0014880D03*
Y0015880D03*
X0004290Y0011330D03*
X0003290D03*
X0007000Y0002960D03*
X0008000D03*
X0020800Y0002880D03*
X0021800D03*
G54D37*
X0013190Y0020970D03*
X0014190Y0019970D03*
Y0020970D03*
X0015190Y0019970D03*
Y0020970D03*
X0016190Y0019970D03*
Y0020970D03*
X0017190Y0019970D03*
X0018190D03*
Y0020970D03*
X0019190Y0019970D03*
Y0020970D03*
G54D38*
X0013190Y0019970D03*
X0017190Y0020970D03*
G54D41*
X0015920Y0012960D03*
X0016720Y0010720D03*
X0018240Y0010320D03*
X0024880Y0017040D03*
X0028240Y0017120D03*
X0021360Y0017040D03*
X0011120Y0010880D03*
X0010640Y0014800D03*
X0019360Y0006240D03*
X0006400Y0010560D03*
G54D83*
X0013280Y0005360D03*
X0016480Y0011360D03*
X0014560Y0011760D03*
X0013360Y0013200D03*
X0006320Y0013760D03*
X0007920Y0011600D03*
X0007680Y0010320D03*
Y0008720D03*
X0011120Y0019120D03*
X0016800Y0018880D03*
X0018720Y0012400D03*
X0009040Y0014320D03*
X0009840Y0011200D03*
X0010240Y0013680D03*
X0019200Y0010240D03*
X0015680Y0011760D03*
X0013440Y0013840D03*
X0020720Y0014960D03*
X0020640Y0013280D03*
X0020560Y0010320D03*
X0003760Y0012560D03*
X0022480Y0016960D03*
Y0011840D03*
X0020160Y0011920D03*
X0007120Y0007440D03*
Y0004400D03*
X0003920Y0004480D03*
Y0007440D03*
X0021600Y0005760D03*
X0023440Y0005680D03*
X0020160Y0007120D03*
X0006320Y0015680D03*
X0019760Y0003680D03*
X0013840Y0009600D03*
X0016560Y0006160D03*
X0007120Y0005840D03*
X0006320Y0012640D03*
X0020720Y0012080D03*
X0015440Y0014800D03*
X0015520Y0018640D03*
X0021840Y0020240D03*
X0030160Y0004800D03*
X0021840Y0019360D03*
X0024880Y0013680D03*
X0030160Y0013200D03*
Y0009840D03*
X0028240Y0012400D03*
X0024000Y0012240D03*
X0013040Y0009600D03*
X0013200Y0008320D03*
X0017200D03*
X0009040Y0016400D03*
X0018240Y0008480D03*
X0008480Y0020080D03*
X0014480Y0018000D03*
X0026960Y0018640D03*
X0012800Y0014800D03*
X0012400Y0008400D03*
X0009280Y0007840D03*
X0015280Y0008720D03*
Y0010080D03*
X0022880Y0005840D03*
X0020240Y0015360D03*
X0025920Y0017040D03*
X0028240Y0020880D03*
X0026160Y0004240D03*
X0026560Y0008800D03*
X0008080Y0014560D03*
X0029520Y0008640D03*
Y0011840D03*
X0026880Y0012000D03*
X0024800Y0011200D03*
X0016560Y0003200D03*
X0018720Y0008880D03*
X0024880Y0007920D03*
X0024800Y0009360D03*
X0012240Y0010320D03*
X0011760Y0002560D03*
X0025680Y0009520D03*
X0025440Y0002400D03*
X0019440Y0007920D03*
X0019600Y0016640D03*
X0026480Y0017840D03*
X0026000Y0014640D03*
X0027840Y0014800D03*
X0027440Y0007600D03*
X0028880Y0020880D03*
X0021520Y0007760D03*
X0023840Y0014640D03*
X0025600Y0011840D03*
X0024080Y0005680D03*
X0024880Y0005600D03*
X0025280Y0004160D03*
X0014560Y0008320D03*
X0014720Y0009840D03*
X0026960Y0016560D03*
Y0012800D03*
X0021120Y0012880D03*
X0018400Y0016720D03*
X0023520Y0011840D03*
X0023040Y0004240D03*
X0017920Y0016320D03*
X0028800Y0006320D03*
Y0014160D03*
X0027440Y0011200D03*
Y0004640D03*
X0014640Y0017360D03*
X0026480Y0009520D03*
X0026320Y0002320D03*
X0017440Y0016720D03*
X0005840Y0014160D03*
X0022400Y0002080D03*
Y0004160D03*
X0026880Y0011360D03*
X0026800Y0004960D03*
X0023520Y0009360D03*
X0023440Y0005040D03*
X0025680Y0005440D03*
X0025760Y0008320D03*
X0004400Y0015760D03*
X0004800Y0019840D03*
X0004240Y0018960D03*
X0019280Y0018320D03*
X0019120Y0016000D03*
X0015440Y0013360D03*
X0017280Y0011280D03*
X0010480Y0016560D03*
X0010400Y0018480D03*
X0021600Y0002080D03*
X0016560Y0008080D03*
X0016400Y0006720D03*
X0016960Y0005680D03*
X0017040Y0007280D03*
X0010560Y0012640D03*
X0023120Y0003440D03*
X0023040Y0002000D03*
X0010320Y0022320D03*
Y0019120D03*
X0013760Y0014640D03*
X0016080Y0009840D03*
X0011200Y0002720D03*
X0011920Y0011120D03*
X0020560Y0016560D03*
Y0017920D03*
X0019760D03*
X0029200Y0015120D03*
Y0002560D03*
X0009840Y0014960D03*
X0011040Y0021440D03*
X0018320Y0005920D03*
X0017920Y0012240D03*
X0025040Y0020880D03*
X0023920D03*
X0018400Y0014880D03*
X0020640Y0019040D03*
X0020560Y0015920D03*
X0018960Y0015120D03*
X0019120Y0010880D03*
X0018480Y0017600D03*
X0001040Y0014960D03*
Y0018000D03*
X0020000Y0017120D03*
X0020080Y0020160D03*
X0005360Y0004080D03*
Y0008320D03*
X0015360Y0006000D03*
X0015120Y0011920D03*
X0020720Y0006000D03*
X0018480Y0006560D03*
X0018720Y0011520D03*
X0017840Y0013600D03*
X0014960Y0018800D03*
X0011680D03*
X0018560Y0004080D03*
X0022160Y0014800D03*
X0022000Y0012480D03*
X0018080Y0007920D03*
X0021280Y0018960D03*
X0021760Y0013520D03*
X0010960Y0009680D03*
Y0004240D03*
X0017440Y0004400D03*
X0017920Y0011280D03*
X0008720Y0004480D03*
X0012800Y0004880D03*
X0016880Y0010080D03*
X0019840Y0012720D03*
X0018240Y0012800D03*
X0014720Y0013520D03*
X0007920Y0020880D03*
X0014160Y0006320D03*
X0014320Y0014960D03*
X0016240Y0019120D03*
X0016000Y0014560D03*
X0009200Y0003760D03*
Y0007040D03*
X0009280Y0010480D03*
X0009600Y0013520D03*
X0004400Y0016800D03*
Y0014160D03*
X0006240Y0021760D03*
X0006800Y0019600D03*
G54D84*
X-0000880Y0004400D03*
Y0003440D03*
Y0002320D03*
X0003040Y0021760D03*
X-0001440D03*
X0000720D03*
X-0000880Y0007200D03*
Y0005760D03*
X0006960Y0021840D03*
X0007920D03*
X0009040D03*
X0003120Y0002960D03*
X0004080D03*
X0005200D03*
X0017360Y0002800D03*
X0018320D03*
X0019440D03*
G54D93*
X0006320Y0008500D03*
Y0009000D03*
Y0009500D03*
X0008440D03*
Y0009000D03*
Y0008500D03*
Y0008000D03*
X0022350Y0008950D03*
Y0008450D03*
Y0007950D03*
X0020230D03*
Y0008450D03*
Y0008950D03*
Y0009450D03*
G54D94*
X0006320Y0008000D03*
X0022350Y0009450D03*
M02*
