*
G04 Mass Parameters ***
*
G04 Image ***
*
%INK:\SENIOR_DESIGN\SCHEMATICS\SUBMIT_FILES\DETECTOR.BOT*%
%ICAS*%
%MOIN*%
%IPPOS*%
%ASAXBY*%
G74*%FSLAN2X34Y34*%
*
G04 Aperture Definitions ***
*
%ADD10R,0.0500X0.0500*%
%ADD11C,0.0450*%
%ADD12C,0.0520*%
%ADD13R,0.0520X0.0520*%
%ADD14C,0.0620*%
%ADD15R,0.0620X0.0620*%
%ADD16R,0.0400X0.0340*%
%ADD17R,0.0500X0.0340*%
%ADD18R,0.0340X0.0400*%
%ADD19R,0.0340X0.0500*%
%ADD20C,0.0580*%
%ADD21R,0.0580X0.0580*%
%ADD22C,0.0550*%
%ADD23O,0.0180X0.1000*%
%ADD24R,0.0180X0.1000*%
%ADD25O,0.1000X0.0180*%
%ADD26R,0.1000X0.0180*%
%ADD27O,0.1000X0.0250*%
%ADD28R,0.1000X0.0250*%
%ADD29C,0.0500*%
%ADD30C,0.0500*%
%ADD31C,0.0120*%
%ADD32C,0.0500*%
%ADD33R,0.0500X0.0500*%
%ADD34C,0.0450*%
%ADD35C,0.0520*%
%ADD36R,0.0520X0.0520*%
%ADD37C,0.0620*%
%ADD38R,0.0620X0.0620*%
%ADD39C,0.0580*%
%ADD40R,0.0580X0.0580*%
%ADD41C,0.0550*%
%ADD42O,0.0940X0.0250*%
%ADD43R,0.0940X0.0250*%
%ADD44C,0.0500*%
%ADD45C,0.0650*%
%ADD46C,0.0720*%
%ADD47R,0.0720X0.0720*%
%ADD48C,0.0820*%
%ADD49R,0.0820X0.0820*%
%ADD50C,0.0780*%
%ADD51R,0.0780X0.0780*%
%ADD52C,0.0750*%
%ADD53C,0.0500*%
%ADD54C,0.0750*%
%ADD55C,0.0650*%
%ADD56C,0.0720*%
%ADD57R,0.0720X0.0720*%
%ADD58C,0.0820*%
%ADD59R,0.0820X0.0820*%
%ADD60C,0.0780*%
%ADD61R,0.0780X0.0780*%
%ADD62C,0.0750*%
%ADD63R,0.0500X0.0500*%
%ADD64C,0.0450*%
%ADD65C,0.0520*%
%ADD66R,0.0520X0.0520*%
%ADD67C,0.0620*%
%ADD68R,0.0620X0.0620*%
%ADD69R,0.0400X0.0340*%
%ADD70R,0.0500X0.0340*%
%ADD71R,0.0340X0.0400*%
%ADD72R,0.0340X0.0500*%
%ADD73C,0.0580*%
%ADD74R,0.0580X0.0580*%
%ADD75C,0.0600*%
%ADD76O,0.0180X0.1000*%
%ADD77R,0.0180X0.1000*%
%ADD78O,0.1000X0.0180*%
%ADD79R,0.1000X0.0180*%
%ADD80O,0.1000X0.0250*%
%ADD81R,0.1000X0.0250*%
%ADD82C,0.0550*%
%ADD83C,0.0550*%
%ADD84C,0.0600*%
%ADD85C,0.0080*%
%ADD86C,0.0100*%
%ADD87C,0.0060*%
%ADD88C,0.0010*%
%ADD89O,0.0250X0.0940*%
%ADD90R,0.0250X0.0940*%
%ADD91O,0.0250X0.1000*%
%ADD92R,0.0250X0.1000*%
%ADD93O,0.0860X0.0250*%
%ADD94R,0.0860X0.0250*%
%ADD95C,0.0610*%
%ADD96C,0.0610*%
%ADD97O,0.0250X0.0940*%
%ADD98R,0.0250X0.0940*%
%ADD99O,0.0250X0.1000*%
%ADD100R,0.0250X0.1000*%
%ADD101R,0.0340X0.0400*%
%ADD102R,0.0340X0.0500*%
%ADD103R,0.0400X0.0340*%
%ADD104R,0.0500X0.0340*%
%ADD105O,0.1000X0.0180*%
%ADD106R,0.1000X0.0180*%
%ADD107O,0.0180X0.1000*%
%ADD108R,0.0180X0.1000*%
%ADD109O,0.0250X0.0940*%
%ADD110R,0.0250X0.0940*%
%ADD111O,0.0250X0.1000*%
%ADD112R,0.0250X0.1000*%
%ADD113O,0.1000X0.0250*%
%ADD114R,0.1000X0.0250*%
*
G04 Plot Data ***
*
G54D86*
G01X0013280Y0005360D02*
X0015440D01*
X0015760Y0005680D01*
Y0007280D01*
X0015920Y0007440D01*
Y0009040D01*
X0016480Y0009600D01*
Y0010080D01*
X0016320Y0010240D01*
Y0010880D01*
X0016480Y0011040D01*
Y0011360D01*
X0015920Y0012960D02*
X0016880Y0012000D01*
Y0011040D01*
X0016920Y0011000D01*
Y0010920D01*
X0016720Y0010720D01*
X0014560Y0011760D02*
X0013520D01*
X0013360Y0011920D01*
Y0013200D01*
X0006320Y0013760D02*
Y0012640D01*
X0006880Y0012080D01*
Y0008000D01*
X0006320D01*
X0007920Y0011600D02*
X0007680Y0011360D01*
Y0010320D01*
Y0008720D02*
Y0008160D01*
X0007840Y0008000D01*
X0008440D01*
X0010640Y0014800D02*
X0011120Y0015280D01*
Y0019120D01*
X0016800Y0018880D02*
Y0014080D01*
X0017680Y0013200D01*
X0018400D01*
X0018720Y0012880D01*
Y0012400D01*
X0020160Y0011920D02*
Y0009520D01*
X0020230Y0009450D01*
X0011120Y0010880D02*
X0011200Y0010960D01*
Y0014240D01*
X0010640Y0014800D01*
X0024880Y0012960D02*
Y0013680D01*
X0024240Y0014320D01*
Y0020880D01*
X0023920D01*
X0009040Y0021840D02*
Y0014320D01*
X0009840Y0011200D02*
Y0012080D01*
X0010160Y0012400D01*
Y0013250D01*
X0010240Y0013330D01*
Y0013680D01*
X0019200Y0010240D02*
X0019120Y0010160D01*
Y0008160D01*
X0019040Y0008080D01*
Y0007680D01*
X0020400Y0006320D01*
X0021045D01*
X0022350Y0007625D01*
Y0007950D01*
X0015680Y0011760D02*
Y0012000D01*
X0015360Y0012320D01*
X0014080D01*
X0013760Y0012640D01*
Y0013520D01*
X0013440Y0013840D01*
X0024880Y0012960D02*
Y0013680D01*
X0020720Y0014960D02*
Y0014610D01*
X0020640Y0014530D01*
Y0013280D01*
X0024880Y0013680D02*
Y0012960D01*
Y0013680D01*
X0020640Y0013280D02*
X0020720Y0013200D01*
Y0012720D01*
X0021120Y0012320D01*
Y0011760D01*
X0020720Y0011360D01*
Y0010480D01*
X0020560Y0010320D01*
X0006320Y0015680D02*
Y0012640D01*
X0006880Y0012080D01*
Y0008000D01*
X0006320D01*
X0003760Y0012560D02*
X0005440Y0014240D01*
Y0014800D01*
X0006320D01*
Y0015680D01*
X0022480Y0016960D02*
Y0015200D01*
X0022560Y0015120D01*
Y0011920D01*
X0022480Y0011840D01*
X0020160Y0011920D02*
Y0009520D01*
X0020230Y0009450D01*
X0006320Y0008500D02*
Y0008000D01*
X0007120Y0005840D02*
Y0008000D01*
X0006320D01*
X0004080Y0002960D02*
Y0003970D01*
X0003920Y0004130D01*
Y0004480D01*
X0007120Y0005840D02*
Y0007440D01*
Y0005840D02*
Y0004400D01*
X0024040Y0012960D02*
X0003920Y0004480D02*
Y0007440D01*
X0022350Y0009450D02*
Y0008950D01*
X0024040Y0012960D02*
Y0012560D01*
X0023640D01*
X0023120Y0012040D01*
Y0011600D01*
X0022880Y0011360D01*
Y0009030D01*
X0022800Y0008950D01*
X0022350D01*
X0021600Y0005760D02*
Y0003440D01*
X0021200Y0003040D01*
Y0001920D01*
X0021520Y0001600D01*
X0023600D01*
X0023920Y0001920D01*
Y0005200D01*
X0023440Y0005680D01*
X0024040Y0012960D02*
Y0012560D01*
X0024000D01*
Y0012240D01*
X0023920D01*
Y0006320D01*
X0023840Y0006240D01*
Y0006080D01*
X0023440Y0005680D01*
X0019360Y0006240D02*
X0020160Y0007120D02*
Y0007470D01*
X0020230Y0007540D01*
Y0007950D01*
X0020160Y0007120D02*
Y0007470D01*
X0020230Y0007540D01*
Y0007950D01*
X0018320Y0002800D02*
X0019360Y0003840D01*
Y0006240D01*
X0020160Y0007120D02*
Y0007470D01*
X0020230Y0007540D01*
Y0007950D01*
Y0009450D02*
X-0001040Y0015880D02*
Y0016800D01*
X-0001440Y0017200D01*
Y0021760D01*
X0006320Y0015680D02*
X0007200Y0016560D01*
Y0019760D01*
X0006960Y0020000D01*
Y0021840D01*
X0019760Y0003680D02*
X0020400D01*
X0020720Y0004000D01*
Y0006000D01*
X-0000880Y0007200D02*
Y0010880D01*
X-0000640Y0011120D01*
Y0015480D01*
X-0001040Y0015880D01*
X0013840Y0009600D02*
Y0007280D01*
X0012400Y0005840D01*
Y0004720D01*
X0012640Y0004480D01*
X0016240D01*
X0016560Y0004800D01*
Y0006160D01*
X0008440Y0009500D02*
X0007500D01*
X0007200Y0009200D01*
Y0008240D01*
X0007120Y0008160D01*
Y0005840D01*
X0025760Y0008320D02*
X0025680Y0008240D01*
Y0005440D01*
X0023440Y0005040D02*
X0022880Y0005600D01*
Y0005840D01*
X0023520Y0006480D01*
Y0009360D01*
X0006320Y0012640D02*
X0006880Y0012080D01*
Y0008000D01*
X0006320D01*
X0024040Y0012960D02*
Y0012560D01*
X0024000D01*
Y0012240D01*
X0020720Y0012080D02*
X0020240Y0012560D01*
Y0015360D01*
X0021040D01*
X0021360Y0015680D01*
Y0017040D01*
X0015440Y0014800D02*
Y0015150D01*
X0015520Y0015230D01*
Y0018640D01*
X0022560Y0021600D02*
X0021840Y0020880D01*
Y0020240D01*
X0030160Y0004800D02*
Y0009840D01*
X0022560Y0021600D02*
X0021840Y0020880D01*
Y0019360D01*
X0024880Y0012960D02*
Y0013680D01*
X0030160Y0013200D02*
Y0009840D01*
X0028240Y0017120D02*
Y0012400D01*
X0024000Y0012240D02*
Y0012560D01*
X0024040D01*
Y0012960D01*
X0013040Y0009600D02*
Y0008830D01*
X0013200Y0008670D01*
Y0008320D01*
X0017200D02*
X0017360D01*
Y0007680D01*
X0017440Y0007600D01*
Y0004400D01*
X0006400Y0010560D02*
Y0009580D01*
X0006320Y0009500D01*
X0009040Y0021840D02*
Y0016400D01*
X0018720Y0011520D02*
Y0011170D01*
X0018640Y0011090D01*
Y0009680D01*
X0018240Y0009280D01*
Y0008480D01*
X0008480Y0020080D02*
X0009040D01*
Y0021840D01*
X0012800Y0014800D02*
Y0015680D01*
X0013520Y0016400D01*
Y0017040D01*
X0014480Y0018000D01*
X0026960Y0018640D02*
Y0016560D01*
X0012800Y0014800D02*
X0012640Y0014640D01*
Y0008640D01*
X0012400Y0008400D01*
X0009280Y0007840D02*
X0009040Y0008080D01*
Y0008340D01*
X0008880Y0008500D01*
X0008440D01*
X0015280Y0008720D02*
Y0010080D01*
X0023520Y0009360D02*
Y0006480D01*
X0022880Y0005840D01*
X0023520Y0009360D02*
Y0006480D01*
X0022880Y0005840D01*
Y0005600D01*
X0023440Y0005040D01*
X0025680Y0005440D02*
Y0008240D01*
X0025760Y0008320D01*
X0020240Y0015360D02*
X0021040D01*
X0021360Y0015680D01*
Y0017040D01*
X0024880D02*
X0025920D01*
X0028240Y0020880D02*
Y0017120D01*
X0026160Y0004240D02*
X0026400Y0004480D01*
Y0008290D01*
X0026560Y0008450D01*
Y0008800D01*
X0022350Y0008450D02*
X0022800D01*
X0022960Y0008290D01*
Y0007680D01*
X0021200Y0005920D01*
Y0003520D01*
X0020960Y0003280D01*
X0019120D01*
X0018960Y0003120D01*
Y0002240D01*
X0018640Y0001920D01*
X0010880D01*
X0010560Y0002240D01*
Y0011520D01*
X0010960Y0011920D01*
Y0013760D01*
X0010640Y0014080D01*
X0009760D01*
X0009600Y0013920D01*
X0008720D01*
X0008080Y0014560D01*
X0019360Y0006240D02*
X0029520Y0008640D02*
Y0011840D01*
X0026880Y0012000D02*
X0026400D01*
X0026160Y0012240D01*
X0025440D01*
X0025120Y0011920D01*
Y0011520D01*
X0024800Y0011200D01*
X0016190Y0019970D02*
Y0020970D01*
X0016560Y0003200D02*
X0017040Y0003680D01*
X0018720D01*
X0018960Y0003920D01*
Y0007280D01*
X0018720Y0007520D01*
Y0008880D01*
X0024880Y0007920D02*
Y0008270D01*
X0024800Y0008350D01*
Y0009360D01*
X0012240Y0010320D02*
X0012000Y0010080D01*
Y0002800D01*
X0011760Y0002560D01*
X0025680Y0009520D02*
X0025280Y0009120D01*
Y0007360D01*
X0024480Y0006560D01*
Y0003360D01*
X0025440Y0002400D01*
X0019440Y0007920D02*
X0019360Y0008000D01*
Y0009680D01*
X0019600Y0009920D01*
Y0011120D01*
X0019360Y0011360D01*
Y0012880D01*
X0019680Y0013200D01*
Y0015680D01*
X0019600Y0015760D01*
Y0016640D01*
X0026480Y0017840D02*
Y0015120D01*
X0026000Y0014640D01*
X-0000880Y0003440D02*
X-0001360Y0003920D01*
Y0006720D01*
X-0000880Y0007200D01*
X0027840Y0014800D02*
Y0008000D01*
X0027440Y0007600D01*
X0028880Y0020880D02*
Y0020530D01*
X0028720Y0020370D01*
Y0019560D01*
X0029180Y0019100D01*
X0021520Y0007760D02*
Y0010320D01*
X0022880Y0011680D01*
Y0013680D01*
X0023840Y0014640D01*
X0025600Y0011840D02*
Y0010880D01*
X0024240Y0009520D01*
Y0006190D01*
X0024080Y0006030D01*
Y0005680D01*
X0024880Y0005600D02*
X0025280Y0005200D01*
Y0004160D01*
X0014560Y0008320D02*
Y0008670D01*
X0014720Y0008830D01*
Y0009840D01*
X0026960Y0016560D02*
Y0012800D01*
X0021120Y0012880D02*
X0021360Y0012640D01*
Y0011520D01*
X0020960Y0011120D01*
Y0010000D01*
X0020800Y0009840D01*
Y0009030D01*
X0020720Y0008950D01*
X0020230D01*
X0018400Y0016720D02*
X0018080Y0017040D01*
Y0018000D01*
X0018320Y0018240D01*
Y0019100D01*
X0019190Y0019970D01*
X0023520Y0011840D02*
Y0010080D01*
X0023120Y0009680D01*
Y0008640D01*
X0023200Y0008560D01*
Y0006800D01*
X0022480Y0006080D01*
Y0005150D01*
X0023040Y0004590D01*
Y0004240D01*
X0019760Y0017920D02*
Y0018270D01*
X0019680Y0018350D01*
Y0020480D01*
X0019190Y0020970D01*
X0017920Y0016320D02*
Y0016670D01*
X0017840Y0016750D01*
Y0018240D01*
X0017920Y0018320D01*
Y0019170D01*
X0018190Y0019440D01*
Y0019970D01*
X0028800Y0006320D02*
Y0014160D01*
X0027440Y0011200D02*
Y0008240D01*
X0027040Y0007840D01*
Y0005360D01*
X0027280Y0005120D01*
Y0004800D01*
X0027440Y0004640D01*
X0014190Y0020970D02*
X0014640Y0020520D01*
Y0019200D01*
X0014560Y0019120D01*
Y0018480D01*
X0014880Y0018160D01*
Y0017760D01*
X0014640Y0017520D01*
Y0017360D01*
X0026480Y0009520D02*
X0026160Y0009200D01*
Y0004960D01*
X0025760Y0004560D01*
Y0004080D01*
X0026320Y0003520D01*
Y0002320D01*
X0017440Y0016720D02*
Y0017070D01*
X0017600Y0017230D01*
Y0018480D01*
X0017680Y0018560D01*
Y0020460D01*
X0018190Y0020970D01*
X0005840Y0014160D02*
Y0013810D01*
X0005760Y0013730D01*
Y0009080D01*
X0005840Y0009000D01*
X0006320D01*
X0022400Y0002080D02*
Y0004160D01*
X0026880Y0011360D02*
Y0009040D01*
X0026960Y0008960D01*
Y0008080D01*
X0026800Y0007920D01*
Y0004960D01*
X0023520Y0009360D02*
Y0006480D01*
X0022880Y0005840D01*
Y0005600D01*
X0023440Y0005040D01*
X0025680Y0005440D02*
Y0008240D01*
X0025760Y0008320D01*
X0004400Y0014160D02*
Y0015760D01*
X0004800Y0019840D02*
X0004240Y0019280D01*
Y0018960D01*
X0019280Y0018320D02*
X0019120Y0018160D01*
Y0016000D01*
X0015440Y0013360D02*
X0016560D01*
X0017280Y0012640D01*
Y0011280D01*
X0010480Y0016560D02*
Y0018050D01*
X0010400Y0018130D01*
Y0018480D01*
X0021800Y0002880D02*
Y0002280D01*
X0021600Y0002080D01*
X0016560Y0008080D02*
Y0006880D01*
X0016400Y0006720D01*
X0016960Y0005680D02*
X0017040Y0005760D01*
Y0007280D01*
X0008440Y0009000D02*
X0008880D01*
X0009040Y0009160D01*
Y0009600D01*
X0010240Y0010800D01*
Y0011680D01*
X0010560Y0012000D01*
Y0012640D01*
X0023120Y0003440D02*
Y0003090D01*
X0023040Y0003010D01*
Y0002000D01*
X0010320Y0022320D02*
Y0019120D01*
X0013760Y0014640D02*
X0014000Y0014400D01*
Y0012880D01*
X0014320Y0012560D01*
X0015760D01*
X0016080Y0012240D01*
Y0009840D01*
X0011200Y0002720D02*
X0011680Y0003200D01*
Y0004720D01*
X0011760Y0004800D01*
Y0010610D01*
X0011920Y0010770D01*
Y0011120D01*
X0020560Y0016560D02*
Y0017920D01*
X0019760D02*
Y0018270D01*
X0019680Y0018350D01*
Y0020480D01*
X0019190Y0020970D01*
X0029200Y0015120D02*
Y0012240D01*
X0029120Y0012160D01*
Y0008240D01*
X0029200Y0008160D01*
Y0002560D01*
X0009840Y0014960D02*
X0010880Y0016000D01*
Y0018720D01*
X0010720Y0018880D01*
Y0021120D01*
X0011040Y0021440D01*
X0018320Y0005920D02*
X0017680Y0006560D01*
Y0007840D01*
X0017600Y0007920D01*
Y0010240D01*
X0018320Y0010960D01*
Y0011840D01*
X0017920Y0012240D01*
X0025040Y0020880D02*
X0023920D01*
X0018400Y0014880D02*
X0017440Y0015840D01*
Y0017070D01*
X0017600Y0017230D01*
Y0018480D01*
X0017680Y0018560D01*
Y0020460D01*
X0018190Y0020970D01*
X0020640Y0019040D02*
Y0018720D01*
X0020960Y0018400D01*
Y0016320D01*
X0020560Y0015920D01*
X0018960Y0015120D02*
X0017920Y0016160D01*
Y0016670D01*
X0017840Y0016750D01*
Y0018240D01*
X0017920Y0018320D01*
Y0019170D01*
X0018190Y0019440D01*
Y0019970D01*
X0019120Y0010880D02*
Y0013360D01*
X0019440Y0013680D01*
Y0015200D01*
X0019120Y0015520D01*
X0019040D01*
X0018720Y0015840D01*
Y0016160D01*
X0018880Y0016320D01*
Y0017200D01*
X0018480Y0017600D01*
X0001040Y0014960D02*
Y0018000D01*
X0020000Y0017120D02*
Y0017470D01*
X0020160Y0017630D01*
Y0018240D01*
X0020080Y0018320D01*
Y0020160D01*
X0005360Y0004080D02*
Y0008320D01*
X0015360Y0006000D02*
Y0007440D01*
X0015680Y0007760D01*
Y0011120D01*
X0015200Y0011600D01*
Y0011840D01*
X0015120Y0011920D01*
X0022350Y0007950D02*
Y0007625D01*
X0021045Y0006320D01*
X0020720D01*
Y0006000D01*
X0018480Y0006560D02*
Y0008240D01*
X0018240Y0008480D01*
Y0009280D01*
X0018640Y0009680D01*
Y0011090D01*
X0018720Y0011170D01*
Y0011520D01*
X0017840Y0013600D02*
X0017040Y0014400D01*
Y0018480D01*
X0017200Y0018640D01*
Y0019200D01*
X0016880Y0019520D01*
X0015640D01*
X0015190Y0019970D01*
X0015920Y0012960D02*
X0014640D01*
X0014320Y0013280D01*
Y0013680D01*
X0015040Y0014400D01*
Y0017600D01*
X0015120Y0017680D01*
Y0018290D01*
X0014960Y0018450D01*
Y0018800D01*
X0011680D02*
Y0018450D01*
X0011520Y0018290D01*
Y0004960D01*
X0011440Y0004880D01*
Y0003520D01*
X0010800Y0002880D01*
Y0002560D01*
X0011200Y0002160D01*
X0011920D01*
X0013760Y0004000D01*
X0018130D01*
X0018210Y0004080D01*
X0018560D01*
X0022160Y0014800D02*
Y0012990D01*
X0022000Y0012830D01*
Y0012480D01*
X0018240Y0010320D02*
Y0009840D01*
X0017840Y0009440D01*
Y0008160D01*
X0018080Y0007920D01*
X0021280Y0018960D02*
X0021760Y0018480D01*
Y0013520D01*
X0010960Y0009680D02*
Y0004240D01*
X0017440Y0004400D02*
Y0007600D01*
X0017360Y0007680D01*
Y0010720D01*
X0017920Y0011280D01*
X0007740Y0005380D02*
X0008000D01*
X0008160Y0005220D01*
Y0005040D01*
X0008720Y0004480D01*
X0012800Y0004880D02*
X0015680D01*
X0016000Y0005200D01*
Y0007040D01*
X0016160Y0007200D01*
Y0008320D01*
X0016880Y0009040D01*
Y0010080D01*
X-0000880Y0005760D02*
Y0004400D01*
X0020230Y0008450D02*
X0019760D01*
X0019600Y0008610D01*
Y0009600D01*
X0019840Y0009840D01*
Y0011280D01*
X0019600Y0011520D01*
Y0011920D01*
X0019840Y0012160D01*
Y0012720D01*
X0018240Y0012800D02*
X0017440D01*
X0016480Y0013760D01*
X0014960D01*
X0014720Y0013520D01*
X0007920Y0020880D02*
Y0021840D01*
X0014160Y0006320D02*
Y0009360D01*
X0014240Y0009440D01*
Y0009840D01*
X0012960Y0011120D01*
Y0014400D01*
X0013680Y0015120D01*
X0013810D01*
X0013970Y0014960D01*
X0014320D01*
X0016240Y0019120D02*
Y0014800D01*
X0016000Y0014560D01*
X0009200Y0003760D02*
Y0007040D01*
X0009280Y0010480D02*
Y0013200D01*
X0009600Y0013520D01*
X0004400Y0016800D02*
Y0014160D01*
X0006240Y0021760D02*
X0006480Y0021520D01*
Y0019920D01*
X0006800Y0019600D01*
G54D30*
X0006240Y0021760D03*
X0006800Y0019600D03*
G54D32*
X0013280Y0005360D03*
X0016480Y0011360D03*
X0014560Y0011760D03*
X0013360Y0013200D03*
X0006320Y0013760D03*
X0007920Y0011600D03*
X0007680Y0010320D03*
Y0008720D03*
X0011120Y0019120D03*
X0016800Y0018880D03*
X0018720Y0012400D03*
X0009040Y0014320D03*
X0009840Y0011200D03*
X0010240Y0013680D03*
X0019200Y0010240D03*
X0015680Y0011760D03*
X0013440Y0013840D03*
X0020720Y0014960D03*
X0020640Y0013280D03*
X0020560Y0010320D03*
X0003760Y0012560D03*
X0022480Y0016960D03*
Y0011840D03*
X0020160Y0011920D03*
X0007120Y0007440D03*
Y0004400D03*
X0003920Y0004480D03*
Y0007440D03*
X0021600Y0005760D03*
X0023440Y0005680D03*
X0020160Y0007120D03*
X0006320Y0015680D03*
X0019760Y0003680D03*
X0013840Y0009600D03*
X0016560Y0006160D03*
X0007120Y0005840D03*
X0006320Y0012640D03*
X0020720Y0012080D03*
X0015440Y0014800D03*
X0015520Y0018640D03*
X0021840Y0020240D03*
X0030160Y0004800D03*
X0021840Y0019360D03*
X0024880Y0013680D03*
X0030160Y0013200D03*
Y0009840D03*
X0028240Y0012400D03*
X0024000Y0012240D03*
X0013040Y0009600D03*
X0013200Y0008320D03*
X0017200D03*
X0009040Y0016400D03*
X0018240Y0008480D03*
X0008480Y0020080D03*
X0014480Y0018000D03*
X0026960Y0018640D03*
X0012800Y0014800D03*
X0012400Y0008400D03*
X0009280Y0007840D03*
X0015280Y0008720D03*
Y0010080D03*
X0022880Y0005840D03*
X0020240Y0015360D03*
X0025920Y0017040D03*
X0028240Y0020880D03*
X0026160Y0004240D03*
X0026560Y0008800D03*
X0008080Y0014560D03*
X0029520Y0008640D03*
Y0011840D03*
X0026880Y0012000D03*
X0024800Y0011200D03*
X0016560Y0003200D03*
X0018720Y0008880D03*
X0024880Y0007920D03*
X0024800Y0009360D03*
X0012240Y0010320D03*
X0011760Y0002560D03*
X0025680Y0009520D03*
X0025440Y0002400D03*
X0019440Y0007920D03*
X0019600Y0016640D03*
X0026480Y0017840D03*
X0026000Y0014640D03*
X0027840Y0014800D03*
X0027440Y0007600D03*
X0028880Y0020880D03*
X0021520Y0007760D03*
X0023840Y0014640D03*
X0025600Y0011840D03*
X0024080Y0005680D03*
X0024880Y0005600D03*
X0025280Y0004160D03*
X0014560Y0008320D03*
X0014720Y0009840D03*
X0026960Y0016560D03*
Y0012800D03*
X0021120Y0012880D03*
X0018400Y0016720D03*
X0023520Y0011840D03*
X0023040Y0004240D03*
X0017920Y0016320D03*
X0028800Y0006320D03*
Y0014160D03*
X0027440Y0011200D03*
Y0004640D03*
X0014640Y0017360D03*
X0026480Y0009520D03*
X0026320Y0002320D03*
X0017440Y0016720D03*
X0005840Y0014160D03*
X0022400Y0002080D03*
Y0004160D03*
X0026880Y0011360D03*
X0026800Y0004960D03*
X0023520Y0009360D03*
X0023440Y0005040D03*
X0025680Y0005440D03*
X0025760Y0008320D03*
X0004400Y0015760D03*
X0004800Y0019840D03*
X0004240Y0018960D03*
X0019280Y0018320D03*
X0019120Y0016000D03*
X0015440Y0013360D03*
X0017280Y0011280D03*
X0010480Y0016560D03*
X0010400Y0018480D03*
X0021600Y0002080D03*
X0016560Y0008080D03*
X0016400Y0006720D03*
X0016960Y0005680D03*
X0017040Y0007280D03*
X0010560Y0012640D03*
X0023120Y0003440D03*
X0023040Y0002000D03*
X0010320Y0022320D03*
Y0019120D03*
X0013760Y0014640D03*
X0016080Y0009840D03*
X0011200Y0002720D03*
X0011920Y0011120D03*
X0020560Y0016560D03*
Y0017920D03*
X0019760D03*
X0029200Y0015120D03*
Y0002560D03*
X0009840Y0014960D03*
X0011040Y0021440D03*
X0018320Y0005920D03*
X0017920Y0012240D03*
X0025040Y0020880D03*
X0023920D03*
X0018400Y0014880D03*
X0020640Y0019040D03*
X0020560Y0015920D03*
X0018960Y0015120D03*
X0019120Y0010880D03*
X0018480Y0017600D03*
X0001040Y0014960D03*
Y0018000D03*
X0020000Y0017120D03*
X0020080Y0020160D03*
X0005360Y0004080D03*
Y0008320D03*
X0015360Y0006000D03*
X0015120Y0011920D03*
X0020720Y0006000D03*
X0018480Y0006560D03*
X0018720Y0011520D03*
X0017840Y0013600D03*
X0014960Y0018800D03*
X0011680D03*
X0018560Y0004080D03*
X0022160Y0014800D03*
X0022000Y0012480D03*
X0018080Y0007920D03*
X0021280Y0018960D03*
X0021760Y0013520D03*
X0010960Y0009680D03*
Y0004240D03*
X0017440Y0004400D03*
X0017920Y0011280D03*
X0008720Y0004480D03*
X0012800Y0004880D03*
X0016880Y0010080D03*
X0019840Y0012720D03*
X0018240Y0012800D03*
X0014720Y0013520D03*
X0007920Y0020880D03*
X0014160Y0006320D03*
X0014320Y0014960D03*
X0016240Y0019120D03*
X0016000Y0014560D03*
X0009200Y0003760D03*
Y0007040D03*
X0009280Y0010480D03*
X0009600Y0013520D03*
X0004400Y0016800D03*
Y0014160D03*
G54D33*
X0024040Y0012960D03*
X0024880D03*
G54D35*
X0022560Y0021600D03*
X0023560D03*
X0029180Y0020100D03*
Y0019100D03*
X0002620Y0015820D03*
X0003620D03*
X0004540Y0004380D03*
Y0005380D03*
X0007740Y0004380D03*
Y0005380D03*
X-0001040Y0014880D03*
Y0015880D03*
X0004290Y0011330D03*
X0003290D03*
X0007000Y0002960D03*
X0008000D03*
X0020800Y0002880D03*
X0021800D03*
G54D37*
X0013190Y0020970D03*
X0014190Y0019970D03*
Y0020970D03*
X0015190Y0019970D03*
Y0020970D03*
X0016190Y0019970D03*
Y0020970D03*
X0017190Y0019970D03*
X0018190D03*
Y0020970D03*
X0019190Y0019970D03*
Y0020970D03*
G54D38*
X0013190Y0019970D03*
X0017190Y0020970D03*
G54D41*
X-0000880Y0004400D03*
Y0003440D03*
Y0002320D03*
X0003040Y0021760D03*
X-0001440D03*
X0000720D03*
X-0000880Y0007200D03*
Y0005760D03*
X0006960Y0021840D03*
X0007920D03*
X0009040D03*
X0003120Y0002960D03*
X0004080D03*
X0005200D03*
X0017360Y0002800D03*
X0018320D03*
X0019440D03*
G54D44*
X0015920Y0012960D03*
X0016720Y0010720D03*
X0018240Y0010320D03*
X0024880Y0017040D03*
X0028240Y0017120D03*
X0021360Y0017040D03*
X0011120Y0010880D03*
X0010640Y0014800D03*
X0019360Y0006240D03*
X0006400Y0010560D03*
G54D93*
X0006320Y0008500D03*
Y0009000D03*
Y0009500D03*
X0008440D03*
Y0009000D03*
Y0008500D03*
Y0008000D03*
X0022350Y0008950D03*
Y0008450D03*
Y0007950D03*
X0020230D03*
Y0008450D03*
Y0008950D03*
Y0009450D03*
G54D94*
X0006320Y0008000D03*
X0022350Y0009450D03*
M02*
