*
G04 Mass Parameters ***
*
G04 Image ***
*
%INK:\SENIOR_DESIGN\SCHEMATICS\SUBMIT_FILES\DETECTOR.SSB*%
%ICAS*%
%MOIN*%
%IPPOS*%
%ASAXBY*%
G74*%FSLAN2X34Y34*%
*
G04 Aperture Definitions ***
*
%ADD10R,0.0500X0.0500*%
%ADD11C,0.0450*%
%ADD12C,0.0520*%
%ADD13R,0.0520X0.0520*%
%ADD14C,0.0620*%
%ADD15R,0.0620X0.0620*%
%ADD16R,0.0400X0.0340*%
%ADD17R,0.0500X0.0340*%
%ADD18R,0.0340X0.0400*%
%ADD19R,0.0340X0.0500*%
%ADD20C,0.0580*%
%ADD21R,0.0580X0.0580*%
%ADD22C,0.0550*%
%ADD23O,0.0180X0.1000*%
%ADD24R,0.0180X0.1000*%
%ADD25O,0.1000X0.0180*%
%ADD26R,0.1000X0.0180*%
%ADD27O,0.1000X0.0250*%
%ADD28R,0.1000X0.0250*%
%ADD29C,0.0500*%
%ADD30C,0.0500*%
%ADD31C,0.0120*%
%ADD32C,0.0500*%
%ADD33R,0.0500X0.0500*%
%ADD34C,0.0450*%
%ADD35C,0.0520*%
%ADD36R,0.0520X0.0520*%
%ADD37C,0.0620*%
%ADD38R,0.0620X0.0620*%
%ADD39C,0.0580*%
%ADD40R,0.0580X0.0580*%
%ADD41C,0.0550*%
%ADD42O,0.0940X0.0250*%
%ADD43R,0.0940X0.0250*%
%ADD44C,0.0500*%
%ADD45C,0.0650*%
%ADD46C,0.0720*%
%ADD47R,0.0720X0.0720*%
%ADD48C,0.0820*%
%ADD49R,0.0820X0.0820*%
%ADD50C,0.0780*%
%ADD51R,0.0780X0.0780*%
%ADD52C,0.0750*%
%ADD53C,0.0500*%
%ADD54C,0.0750*%
%ADD55C,0.0650*%
%ADD56C,0.0720*%
%ADD57R,0.0720X0.0720*%
%ADD58C,0.0820*%
%ADD59R,0.0820X0.0820*%
%ADD60C,0.0780*%
%ADD61R,0.0780X0.0780*%
%ADD62C,0.0750*%
%ADD63R,0.0500X0.0500*%
%ADD64C,0.0450*%
%ADD65C,0.0520*%
%ADD66R,0.0520X0.0520*%
%ADD67C,0.0620*%
%ADD68R,0.0620X0.0620*%
%ADD69R,0.0400X0.0340*%
%ADD70R,0.0500X0.0340*%
%ADD71R,0.0340X0.0400*%
%ADD72R,0.0340X0.0500*%
%ADD73C,0.0580*%
%ADD74R,0.0580X0.0580*%
%ADD75C,0.0600*%
%ADD76O,0.0180X0.1000*%
%ADD77R,0.0180X0.1000*%
%ADD78O,0.1000X0.0180*%
%ADD79R,0.1000X0.0180*%
%ADD80O,0.1000X0.0250*%
%ADD81R,0.1000X0.0250*%
%ADD82C,0.0550*%
%ADD83C,0.0550*%
%ADD84C,0.0600*%
%ADD85C,0.0080*%
%ADD86C,0.0100*%
%ADD87C,0.0060*%
%ADD88C,0.0010*%
%ADD89O,0.0250X0.0940*%
%ADD90R,0.0250X0.0940*%
%ADD91O,0.0250X0.1000*%
%ADD92R,0.0250X0.1000*%
%ADD93O,0.0860X0.0250*%
%ADD94R,0.0860X0.0250*%
%ADD95C,0.0610*%
%ADD96C,0.0610*%
%ADD97O,0.0250X0.0940*%
%ADD98R,0.0250X0.0940*%
%ADD99O,0.0250X0.1000*%
%ADD100R,0.0250X0.1000*%
%ADD101R,0.0340X0.0400*%
%ADD102R,0.0340X0.0500*%
%ADD103R,0.0400X0.0340*%
%ADD104R,0.0500X0.0340*%
%ADD105O,0.1000X0.0180*%
%ADD106R,0.1000X0.0180*%
%ADD107O,0.0180X0.1000*%
%ADD108R,0.0180X0.1000*%
%ADD109O,0.0250X0.0940*%
%ADD110R,0.0250X0.0940*%
%ADD111O,0.0250X0.1000*%
%ADD112R,0.0250X0.1000*%
%ADD113O,0.1000X0.0250*%
%ADD114R,0.1000X0.0250*%
*
G04 Plot Data ***
*
G54D85*
G01X0023059Y0002947D02*
X0022948D01*
X0023003D02*
Y0002614D01*
X0022948Y0002669D01*
X0022510Y0002947D02*
Y0002614D01*
X0022482Y0002947D02*
X0022649D01*
X0022704Y0002836D01*
Y0002725D01*
X0022649Y0002614D01*
X0022482D01*
X0021021Y0010612D02*
X0021243D01*
X0021021Y0010834D01*
Y0010890D01*
X0021049Y0010946D01*
X0021216D01*
X0021243Y0010890D01*
X0021431Y0010946D02*
Y0010668D01*
X0021459Y0010612D01*
X0021626D01*
X0021653Y0010668D01*
Y0010946D01*
X0007301Y0010621D02*
X0007245Y0010565D01*
X0007134D01*
X0007079Y0010621D01*
Y0010676D01*
X0007190Y0010787D01*
X0007079Y0010899D01*
X0007301D01*
X0007489D02*
Y0010621D01*
X0007517Y0010565D01*
X0007683D01*
X0007711Y0010621D01*
Y0010899D01*
X0009464Y0003127D02*
X0009242D01*
X0009464Y0002905D01*
Y0002849D01*
X0009437Y0002794D01*
X0009270D01*
X0009242Y0002849D01*
X0008860Y0003127D02*
Y0002794D01*
X0008832Y0003127D02*
X0008999D01*
X0009054Y0003016D01*
Y0002905D01*
X0008999Y0002794D01*
X0008832D01*
X0021665Y0009700D02*
X0020915D01*
X0020550Y0003255D02*
Y0003380D01*
X0022050D01*
Y0003255D01*
X0008250Y0002585D02*
Y0002460D01*
X0006750D01*
Y0002585D01*
Y0003335D02*
Y0003460D01*
X0008250D01*
Y0003335D01*
X0021665Y0009950D02*
Y0007450D01*
X0020915D01*
Y0009950D01*
X0021665D01*
X0007005Y0007500D02*
Y0010000D01*
X0007755D01*
Y0007500D01*
X0007005D01*
Y0007750D02*
X0007755D01*
X0022050Y0002505D02*
Y0002380D01*
X0020550D01*
Y0002505D01*
G54D86*
G01X-0000208Y0003508D02*
Y0004008D01*
X-0000125Y0003925D01*
X-0000042Y0003758D01*
X0000042Y0003925D01*
X0000125Y0004008D01*
Y0003508D01*
X0000658D02*
X0000700Y0003592D01*
Y0003925D01*
X0000658Y0004008D01*
X0000408D01*
X0000367Y0003925D01*
Y0003592D01*
X0000408Y0003508D01*
X0000658D01*
X0001108D02*
Y0004008D01*
X0000942D02*
X0001275D01*
X0001683Y0003508D02*
Y0004008D01*
X0001517D02*
X0001850D01*
X0002383Y0003508D02*
X0002425Y0003592D01*
Y0003925D01*
X0002383Y0004008D01*
X0002133D01*
X0002092Y0003925D01*
Y0003592D01*
X0002133Y0003508D01*
X0002383D01*
X0002958D02*
Y0004008D01*
X0003000Y0003508D02*
X0002750D01*
X0002667Y0003592D01*
Y0003675D01*
X0002708Y0003758D01*
X0002958D02*
X0002708D01*
X0002667Y0003842D01*
Y0003925D01*
X0002750Y0004008D01*
X0003000D01*
G54D87*
G01X0026255Y0012911D02*
X0026422D01*
X0026450Y0012966D01*
Y0013022D01*
X0026422Y0013077D01*
X0026255D01*
X0026227Y0013022D01*
Y0012966D01*
X0026339Y0012744D01*
X0026080Y0013077D02*
X0025969D01*
X0026024D02*
Y0012744D01*
X0025969Y0012799D01*
X0025765Y0013022D02*
X0025738Y0013077D01*
X0025571D01*
X0025543Y0013022D01*
Y0012799D01*
X0025571Y0012744D01*
X0025738D01*
X0025765Y0012799D01*
X0025260Y0013335D02*
Y0012585D01*
X0023660D01*
Y0013335D01*
X0025260D01*
M02*
