*
G04 Mass Parameters ***
*
G04 Image ***
*
%INK:\SENIOR_DESIGN\SCHEMATICS\SUBMIT_FILES\DETECTOR.SPT*%
%ICAS*%
%MOIN*%
%IPPOS*%
%ASAXBY*%
G74*%FSLAN2X34Y34*%
*
G04 Aperture Definitions ***
*
%ADD10R,0.0500X0.0500*%
%ADD11C,0.0450*%
%ADD12C,0.0520*%
%ADD13R,0.0520X0.0520*%
%ADD14C,0.0620*%
%ADD15R,0.0620X0.0620*%
%ADD16R,0.0400X0.0340*%
%ADD17R,0.0500X0.0340*%
%ADD18R,0.0340X0.0400*%
%ADD19R,0.0340X0.0500*%
%ADD20C,0.0580*%
%ADD21R,0.0580X0.0580*%
%ADD22C,0.0550*%
%ADD23O,0.0180X0.1000*%
%ADD24R,0.0180X0.1000*%
%ADD25O,0.1000X0.0180*%
%ADD26R,0.1000X0.0180*%
%ADD27O,0.1000X0.0250*%
%ADD28R,0.1000X0.0250*%
%ADD29C,0.0500*%
%ADD30C,0.0500*%
%ADD31C,0.0120*%
%ADD32C,0.0500*%
%ADD33R,0.0500X0.0500*%
%ADD34C,0.0450*%
%ADD35C,0.0520*%
%ADD36R,0.0520X0.0520*%
%ADD37C,0.0620*%
%ADD38R,0.0620X0.0620*%
%ADD39C,0.0580*%
%ADD40R,0.0580X0.0580*%
%ADD41C,0.0550*%
%ADD42O,0.0940X0.0250*%
%ADD43R,0.0940X0.0250*%
%ADD44C,0.0500*%
%ADD45C,0.0650*%
%ADD46C,0.0720*%
%ADD47R,0.0720X0.0720*%
%ADD48C,0.0820*%
%ADD49R,0.0820X0.0820*%
%ADD50C,0.0780*%
%ADD51R,0.0780X0.0780*%
%ADD52C,0.0750*%
%ADD53C,0.0500*%
%ADD54C,0.0750*%
%ADD55C,0.0650*%
%ADD56C,0.0720*%
%ADD57R,0.0720X0.0720*%
%ADD58C,0.0820*%
%ADD59R,0.0820X0.0820*%
%ADD60C,0.0780*%
%ADD61R,0.0780X0.0780*%
%ADD62C,0.0750*%
%ADD63R,0.0500X0.0500*%
%ADD64C,0.0450*%
%ADD65C,0.0520*%
%ADD66R,0.0520X0.0520*%
%ADD67C,0.0620*%
%ADD68R,0.0620X0.0620*%
%ADD69R,0.0400X0.0340*%
%ADD70R,0.0500X0.0340*%
%ADD71R,0.0340X0.0400*%
%ADD72R,0.0340X0.0500*%
%ADD73C,0.0580*%
%ADD74R,0.0580X0.0580*%
%ADD75C,0.0600*%
%ADD76O,0.0180X0.1000*%
%ADD77R,0.0180X0.1000*%
%ADD78O,0.1000X0.0180*%
%ADD79R,0.1000X0.0180*%
%ADD80O,0.1000X0.0250*%
%ADD81R,0.1000X0.0250*%
%ADD82C,0.0550*%
%ADD83C,0.0550*%
%ADD84C,0.0600*%
%ADD85C,0.0080*%
%ADD86C,0.0100*%
%ADD87C,0.0060*%
%ADD88C,0.0010*%
%ADD89O,0.0250X0.0940*%
%ADD90R,0.0250X0.0940*%
%ADD91O,0.0250X0.1000*%
%ADD92R,0.0250X0.1000*%
%ADD93O,0.0860X0.0250*%
%ADD94R,0.0860X0.0250*%
%ADD95C,0.0610*%
%ADD96C,0.0610*%
%ADD97O,0.0250X0.0940*%
%ADD98R,0.0250X0.0940*%
%ADD99O,0.0250X0.1000*%
%ADD100R,0.0250X0.1000*%
%ADD101R,0.0340X0.0400*%
%ADD102R,0.0340X0.0500*%
%ADD103R,0.0400X0.0340*%
%ADD104R,0.0500X0.0340*%
%ADD105O,0.1000X0.0180*%
%ADD106R,0.1000X0.0180*%
%ADD107O,0.0180X0.1000*%
%ADD108R,0.0180X0.1000*%
%ADD109O,0.0250X0.0940*%
%ADD110R,0.0250X0.0940*%
%ADD111O,0.0250X0.1000*%
%ADD112R,0.0250X0.1000*%
%ADD113O,0.1000X0.0250*%
%ADD114R,0.1000X0.0250*%
*
G04 Plot Data ***
*
G54D33*
X0028920Y0021520D03*
X0029760D03*
X0002680Y0014160D03*
X0003520D03*
X0003040Y0004480D03*
Y0005320D03*
X0006160Y0004400D03*
Y0005240D03*
X0000100Y0017980D03*
X-0000740D03*
X0004270Y0009390D03*
X0003430D03*
X0007420Y0013900D03*
X0008260D03*
X0024640Y0019280D03*
Y0020120D03*
X0026080Y0019280D03*
Y0020120D03*
X0022440Y0019120D03*
X0023280D03*
X0002720Y0007480D03*
Y0008320D03*
X0020920Y0006800D03*
X0021760D03*
X0009840Y0005840D03*
Y0005000D03*
X0029540Y0005140D03*
Y0004300D03*
X0001790Y0010390D03*
Y0009550D03*
X-0001010Y0010390D03*
Y0009550D03*
X0000430Y0010390D03*
Y0009550D03*
X0003480Y0018000D03*
X0002640D03*
X0002900Y0020420D03*
Y0019580D03*
X-0001500Y0020260D03*
Y0019420D03*
X0007840Y0016080D03*
X0007000D03*
X0000740Y0020180D03*
Y0019340D03*
X0024800Y0021600D03*
X0025640D03*
X0022520Y0020320D03*
X0023360D03*
X0026880Y0021600D03*
X0027720D03*
X0027520Y0020080D03*
Y0019240D03*
X0008120Y0012240D03*
X0007280D03*
G54D101*
X0010135Y0002835D03*
X0009395D03*
G54D102*
X0009765Y0003625D03*
G54D103*
X0002000Y0012560D03*
Y0011820D03*
G54D104*
X0001210Y0012190D03*
G54D105*
X0011920Y0014970D03*
Y0014655D03*
Y0014340D03*
Y0014025D03*
Y0013710D03*
Y0013395D03*
Y0013080D03*
Y0012765D03*
Y0012135D03*
Y0011820D03*
X0016870D03*
Y0012135D03*
Y0012450D03*
Y0012765D03*
Y0013080D03*
Y0013395D03*
Y0014025D03*
Y0014340D03*
Y0014655D03*
Y0014970D03*
G54D106*
X0011920Y0012450D03*
X0016870Y0013710D03*
G54D107*
X0015655Y0015870D03*
X0015340D03*
X0015025D03*
X0014710D03*
X0014395D03*
X0014080D03*
X0013765D03*
X0013450D03*
X0012820D03*
Y0010920D03*
X0013135D03*
X0013450D03*
X0013765D03*
X0014080D03*
X0014395D03*
X0014710D03*
X0015340D03*
X0015655D03*
X0015970D03*
G54D108*
Y0015870D03*
X0013135D03*
X0015025Y0010920D03*
G54D109*
X0021570Y0010350D03*
X0022050D03*
X0022610D03*
X0023090D03*
X0023570D03*
X0024130D03*
X0024690D03*
X0025170D03*
X0026130D03*
X0026610D03*
X0027090D03*
X0027570D03*
X0028050D03*
X0028530D03*
Y0015710D03*
X0028050D03*
X0027570D03*
X0026610D03*
X0026130D03*
X0025650D03*
X0025170D03*
X0024610D03*
X0024050D03*
X0023570D03*
X0023090D03*
X0022610D03*
X0021650D03*
X0021090D03*
G54D110*
Y0010350D03*
X0025650D03*
X0027090Y0015710D03*
X0022130D03*
G54D111*
X0011940Y0003600D03*
X0012440D03*
X0012940D03*
X0013440D03*
X0013940D03*
X0014440D03*
X0014940D03*
X0015440D03*
X0015940D03*
Y0007220D03*
X0015440D03*
X0014940D03*
X0014440D03*
X0013940D03*
X0013440D03*
X0012940D03*
X0012440D03*
X0011940D03*
X0011440D03*
X0024180Y0003200D03*
X0024680D03*
X0025180D03*
X0025680D03*
X0026180D03*
X0026680D03*
X0027180D03*
X0027680D03*
X0028180D03*
Y0006820D03*
X0027680D03*
X0027180D03*
X0026680D03*
X0026180D03*
X0025680D03*
X0025180D03*
X0024680D03*
X0024180D03*
X0023680D03*
G54D112*
X0011440Y0003600D03*
X0023680Y0003200D03*
G54D113*
X0005710Y0020070D03*
Y0019570D03*
Y0019070D03*
Y0018570D03*
Y0018070D03*
Y0017570D03*
Y0017070D03*
X0009330D03*
Y0017570D03*
Y0018070D03*
Y0018570D03*
Y0019070D03*
Y0019570D03*
Y0020070D03*
Y0020570D03*
G54D114*
X0005710D03*
M02*
