%
T1C0.0280F200S100
X001040Y014960
X001040Y018000
X003760Y012560
X003920Y004480
X003920Y007440
X004240Y018960
X004400Y014160
X004400Y015760
X004400Y016800
X004800Y019840
X005360Y004080
X005360Y008320
X005840Y014160
X006240Y021760
X006320Y012640
X006320Y013760
X006320Y015680
X006400Y010560
X006800Y019600
X007120Y004400
X007120Y005840
X007120Y007440
X007680Y008720
X007680Y010320
X007920Y011600
X008080Y014560
X007920Y020880
X008480Y020080
X008720Y004480
X009040Y014320
X009040Y016400
X009200Y003760
X009200Y007040
X009280Y007840
X009280Y010480
X009600Y013520
X009840Y011200
X010240Y013680
X009840Y014960
X010320Y019120
X010400Y018480
X010320Y022320
X010480Y016560
X010560Y012640
X010640Y014800
X010960Y004240
X010960Y009680
X011040Y021440
X011120Y010880
X011120Y019120
X011200Y002720
X011680Y018800
X011760Y002560
X011920Y011120
X012240Y010320
X012400Y008400
X012800Y004880
X013040Y009600
X012800Y014800
X013200Y008320
X013280Y005360
X013360Y013200
X013440Y013840
X013760Y014640
X013840Y009600
X014160Y006320
X014320Y014960
X014480Y018000
X014560Y008320
X014560Y011760
X014640Y017360
X014720Y009840
X014720Y013520
X014960Y018800
X015120Y011920
X015280Y008720
X015280Y010080
X015360Y006000
X015440Y013360
X015440Y014800
X015520Y018640
X015680Y011760
X015920Y012960
X016000Y014560
X016080Y009840
X016240Y019120
X016400Y006720
X016480Y011360
X016560Y003200
X016560Y006160
X016560Y008080
X016720Y010720
X016800Y018880
X016880Y010080
X016960Y005680
X017040Y007280
X017200Y008320
X017280Y011280
X017440Y004400
X017440Y016720
X017840Y013600
X017920Y011280
X017920Y012240
X017920Y016320
X018080Y007920
X018240Y008480
X018240Y010320
X018240Y012800
X018320Y005920
X018400Y014880
X018400Y016720
X018480Y006560
X018560Y004080
X018480Y017600
X018720Y008880
X018720Y011520
X018720Y012400
X018960Y015120
X019120Y010880
X019200Y010240
X019120Y016000
X019280Y018320
X019360Y006240
X019440Y007920
X019600Y016640
X019760Y003680
X019840Y012720
X019760Y017920
X020000Y017120
X020080Y020160
X020160Y007120
X020160Y011920
X020240Y015360
X020560Y010320
X020640Y013280
X020560Y015920
X020560Y016560
X020560Y017920
X020640Y019040
X020720Y006000
X020720Y012080
X021120Y012880
X020720Y014960
X021280Y018960
X021360Y017040
X021520Y007760
X021600Y002080
X021600Y005760
X021760Y013520
X021840Y019360
X021840Y020240
X022000Y012480
X022160Y014800
X022400Y002080
X022400Y004160
X022480Y011840
X022480Y016960
X022880Y005840
X023040Y002000
X023040Y004240
X023120Y003440
X023440Y005040
X023440Y005680
X023520Y009360
X023520Y011840
X023840Y014640
X023920Y020880
X024000Y012240
X024080Y005680
X024800Y009360
X024800Y011200
X024880Y005600
X024880Y007920
X024880Y013680
X024880Y017040
X025040Y020880
X025280Y004160
X025440Y002400
X025600Y011840
X025680Y005440
X025680Y009520
X025760Y008320
X025920Y017040
X026000Y014640
X026160Y004240
X026320Y002320
X026480Y009520
X026480Y017840
X026560Y008800
X026800Y004960
X026880Y011360
X026880Y012000
X026960Y012800
X026960Y016560
X026960Y018640
X027440Y004640
X027440Y007600
X027440Y011200
X027840Y014800
X028240Y012400
X028240Y017120
X028240Y020880
X028800Y006320
X028800Y014160
X028880Y020880
X029200Y002560
X029200Y015120
X029520Y008640
X029520Y011840
X030160Y004800
X030160Y009840
X030160Y013200
T2C0.0310F200S100
X-001040Y014880
X-001040Y015880
X002620Y015820
X003290Y011330
X003620Y015820
X004290Y011330
X004540Y004380
X004540Y005380
X007000Y002960
X007740Y004380
X007740Y005380
X008000Y002960
X020800Y002880
X021800Y002880
X022560Y021600
X023560Y021600
X029180Y019100
X029180Y020100
T5C0.0420F200S100
X013190Y019970
X013190Y020970
X014190Y019970
X014190Y020970
X015190Y019970
X015190Y020970
X016190Y019970
X016190Y020970
X017190Y019970
X017190Y020970
X018190Y019970
X018190Y020970
X019190Y019970
X019190Y020970
T4C0.0360F200S100
X-001440Y021760
X-000880Y005760
X-000880Y007200
X000720Y021760
X003040Y021760
T3C0.0350F200S100
X-000880Y002320
X-000880Y003440
X-000880Y004400
X003120Y002960
X004080Y002960
X005200Y002960
X006960Y021840
X007920Y021840
X009040Y021840
X017360Y002800
X018320Y002800
X019440Y002800
M30
